<?xml version="1.0" encoding="UTF-8"?>
<svg width="100px" height="93px" viewBox="0 0 100 93" version="1.1" xmlns="http://www.w3.org/2000/svg" xmlns:xlink="http://www.w3.org/1999/xlink">
    <!-- Generator: Sketch 48.2 (47327) - http://www.bohemiancoding.com/sketch -->
    <title>ic_Fully-automated</title>
    <desc>Created with Sketch.</desc>
    <defs>
        <rect id="path-1" x="0" y="0" width="150" height="150"></rect>
        <rect id="path-3" x="25" y="25" width="100" height="100"></rect>
    </defs>
    <g id="Business" stroke="none" stroke-width="1" fill="none" fill-rule="evenodd" transform="translate(-790.000000, -6840.000000)">
        <g id="ic_Fully-automated" transform="translate(765.000000, 6810.000000)">
            <mask id="mask-2" fill="white">
                <use xlink:href="#path-1"></use>
            </mask>
            <g id="bg"></g>
            <mask id="mask-4" fill="white">
                <use xlink:href="#path-3"></use>
            </mask>
            <g id="Mask"></g>
            <g id="Group-12" mask="url(#mask-4)">
                <g transform="translate(-27.000000, 30.000000)">
                    <g id="Subtract" stroke="none" stroke-width="1" fill="none" fill-rule="evenodd" transform="translate(73.000000, 64.000000)">
                        <g id="path0_fill-link" fill="#DCEEFF" fill-rule="nonzero">
                            <path d="M3.56899081,4.92644162 L7.21344432,5.44095649 C7.56658595,5.15651351 7.93800541,4.89135946 8.32621351,4.64813568 L9.03326486,1.03574676 C9.7400027,0.749841243 10.4782486,0.515972703 11.2449459,0.339694243 C12.0118,0.163415784 12.7784189,0.0514510946 13.5393162,0 L15.7528784,2.94118784 C16.2084135,2.99059757 16.6579135,3.06689108 17.0998108,3.16862622 L20.1535892,1.11438378 C21.5815649,1.71893189 22.9060811,2.5482927 24.0734486,3.56883405 L23.558973,7.21280162 C23.8435649,7.56594324 24.1086405,7.93753514 24.3520054,8.32574324 L27.9639946,9.03255946 C28.2499973,9.73945405 28.4839568,10.4781703 28.6603081,11.2450243 C28.8365027,12.0118 28.9486622,12.778027 29,13.5386892 L26.0596351,15.7513108 C26.0103351,16.2073946 25.9341514,16.6579135 25.8322595,17.1004378 L27.8858514,20.1533541 C27.2815541,21.5810946 26.4521541,22.9056892 25.4315892,24.0729784 L21.7886405,23.5587378 C21.4348405,23.8438 21.0630135,24.1089541 20.6740216,24.3527108 L19.9673622,27.9639946 C19.2606243,28.2498405 18.5219865,28.4840351 17.7552108,28.6603081 C16.9886703,28.8365811 16.2222865,28.9485838 15.4617811,29 L13.2490027,26.0597135 C12.7926054,26.0102568 12.3419297,25.9339946 11.8991703,25.8319459 L8.84625405,27.8856162 C7.41845865,27.2810838 6.09420892,26.4519973 4.92701378,25.4314324 L5.44130135,21.7877784 C5.15630189,21.4340568 4.89104595,21.0622297 4.64743027,20.6733946 L1.03573892,19.9668135 C0.749858486,19.2602324 0.515893541,18.5218297 0.339688757,17.7549757 C0.163483189,16.9882 0.0513261595,16.2217378 0,15.4610757 L2.94109378,13.2477486 C2.99051919,12.7920568 3.06670297,12.3418514 3.16861838,11.8995622 L1.11454838,8.84578378 C1.7190573,7.41801973 2.54846514,6.09373865 3.56899081,4.92644162 Z M15.7318288,19.859045 C18.6915594,19.1784445 20.5393377,16.2277614 19.85904,13.2681322 C19.1785881,10.3085031 16.2278037,8.46066287 13.2680731,9.14095495 C10.3083425,9.8214784 8.46056425,12.7722386 9.14101617,15.7318678 C9.82131384,18.6914969 12.7720982,20.5393371 15.7318288,19.859045 Z" id="path0_fill"></path>
                        </g>
                    </g>
                    <g id="Subtract" stroke="none" stroke-width="1" fill="none" fill-rule="evenodd" transform="translate(110.000000, 0.000000)">
                        <g id="path1_fill-link" fill="#DCEEFF" fill-rule="nonzero">
                            <path d="M5.80126667,2.55601098 L9.11213333,3.78047415 C9.50553333,3.59622878 9.9116,3.43352415 10.3291333,3.29396707 L11.7728,0.169778634 C12.4980667,0.0578791756 13.242,0 14,0 C14.7581333,0 15.5021333,0.0578791756 16.2275333,0.169778634 L17.6712,3.29396707 C18.0885333,3.43352415 18.4946,3.59622878 18.8878667,3.78047415 L22.1987333,2.55601098 C23.409,3.40072244 24.4738,4.42711756 25.3496,5.59434732 L24.0799333,8.78705122 C24.271,9.16610488 24.4396,9.55780244 24.5843333,9.96003659 L27.8237333,11.3520512 C27.9398,12.0514171 28,12.7690902 28,13.5 C28,14.2309098 27.9398,14.9485829 27.8237333,15.6479488 L24.5846667,17.0399634 C24.4399333,17.4425268 24.2711333,17.8338951 24.0800667,18.213278 L25.3496,21.4056659 C24.4738,22.5728561 23.4088667,23.5995805 22.1986,24.4442854 L18.8882,23.2201976 C18.4948,23.4043902 18.0884,23.5671146 17.6708667,23.7066585 L16.2275333,26.8299 C15.5021333,26.9417854 14.7581333,27 14,27 C13.242,27 12.4980667,26.9421146 11.7726,26.8302293 L10.3292667,23.7069878 C9.9116,23.5674439 9.5054,23.4043902 9.1118,23.2201976 L5.80143333,24.4442854 C4.59114667,23.5999098 3.52652667,22.5728561 2.65071333,21.4059951 L3.92008667,18.2139366 C3.72884,17.8344878 3.56006,17.4425268 3.4152,17.0396341 L0.176269333,15.6476195 C0.0603841333,14.9482537 0,14.2309098 0,13.5 C0,12.7690902 0.0603841333,12.0517463 0.176269333,11.3523805 L3.41536667,9.96036585 C3.56022,9.55780244 3.72900667,9.16584146 3.92024667,8.78639268 L2.65071333,5.59402463 C3.52652667,4.42711756 4.59098,3.40039976 5.80126667,2.55601098 Z M14.5,18 C17.537533,18 20,15.7615717 20,13.0001585 C20,10.2387454 17.537533,8 14.5,8 C11.462467,8 9,10.2387454 9,13.0001585 C9,15.7615717 11.462467,18 14.5,18 Z" id="path1_fill"></path>
                        </g>
                    </g>
                    <path d="M0,81 L91,81 L91,83 C91,85.209139 89.209139,87 87,87 L4,87 C1.790861,87 2.705415e-16,85.209139 0,83 L0,81 Z" id="Rectangle-3" stroke="#4F69F6" stroke-width="2" fill="#FFFFFF" fill-rule="evenodd"></path>
                    <path d="M118,45 L209,45 L209,47 C209,49.209139 207.209139,51 205,51 L122,51 C119.790861,51 118,49.209139 118,47 L118,45 Z" id="Rectangle-3-Copy-2" stroke="#4F69F6" stroke-width="2" fill="#FFFFFF" fill-rule="evenodd"></path>
                    <path d="M14,37 L77,37 C79.209139,37 81,38.790861 81,41 L81,81 L10,81 L10,41 C10,38.790861 11.790861,37 14,37 Z" id="Rectangle-3-Copy" stroke="#4F69F6" stroke-width="2" fill="#FFFFFF" fill-rule="evenodd"></path>
                    <path d="M132,1 L195,1 C197.209139,1 199,2.790861 199,5 L199,45 L128,45 L128,5 C128,2.790861 129.790861,1 132,1 Z" id="Rectangle-3-Copy-3" stroke="#4F69F6" stroke-width="2" fill="#FFFFFF" fill-rule="evenodd"></path>
                    <path d="M17,42 L74,42 C75.1045695,42 76,42.8954305 76,44 L76,81 L15,81 L15,44 C15,42.8954305 15.8954305,42 17,42 Z" id="Rectangle-3-Copy" stroke="#4F69F6" stroke-width="2" fill="#FFFFFF" fill-rule="evenodd"></path>
                    <path d="M135,6 L192,6 C193.104569,6 194,6.8954305 194,8 L194,45 L133,45 L133,8 C133,6.8954305 133.895431,6 135,6 Z" id="Rectangle-3-Copy-4" stroke="#4F69F6" stroke-width="2" fill="#FFFFFF" fill-rule="evenodd"></path>
                    <g id="Group-11" stroke="none" stroke-width="1" fill="none" fill-rule="evenodd" transform="translate(88.000000, 40.000000)">
                        <g id="Group" transform="translate(1.000000, 0.000000)" fill-rule="nonzero">
                            <g id="Line" transform="translate(12.000000, 3.000000)">
                                <g id="path21_fill-link" transform="translate(1.390000, 1.000000)" fill="#FFFFFF">
                                    <path d="M0,0 L4.95652,0 L0,0 Z" id="path21_fill"></path>
                                </g>
                                <g id="path22_stroke-link" transform="translate(0.390000, 0.000000)" fill="#4F69F6">
                                    <path d="M1,0 C0.447715,0 0,0.447715 0,1 C0,1.552285 0.447715,2 1,2 L1,0 Z M5.95652,2 C6.50881,2 6.95652,1.552285 6.95652,1 C6.95652,0.447715 6.50881,0 5.95652,0 L5.95652,2 Z M1,2 L5.95652,2 L5.95652,0 L1,0 L1,2 Z" id="path22_stroke"></path>
                                </g>
                            </g>
                            <g id="Line" transform="translate(5.000000, 3.000000)">
                                <g id="path23_fill-link" transform="translate(1.370000, 1.000000)" fill="#FFFFFF">
                                    <path d="M0,0 L3.71739,0 L0,0 Z" id="path23_fill"></path>
                                </g>
                                <g id="path24_stroke-link" transform="translate(0.370000, 0.000000)" fill="#4F69F6">
                                    <path d="M1,0 C0.447715,0 0,0.447715 0,1 C0,1.552285 0.447715,2 1,2 L1,0 Z M4.71739,2 C5.26968,2 5.71739,1.552285 5.71739,1 C5.71739,0.447715 5.26968,0 4.71739,0 L4.71739,2 Z M1,2 L4.71739,2 L4.71739,0 L1,0 L1,2 Z" id="path24_stroke"></path>
                                </g>
                            </g>
                            <g id="Line" transform="translate(0.000000, 3.000000)">
                                <g id="path25_fill-link" transform="translate(1.000000, 1.000000)" fill="#FFFFFF">
                                    <path d="M0,0 L2.06522,0 L0,0 Z" id="path25_fill"></path>
                                </g>
                                <g id="path26_stroke-link" fill="#4F69F6">
                                    <path d="M1,0 C0.447715,0 0,0.447715 0,1 C0,1.552285 0.447715,2 1,2 L1,0 Z M3.06522,2 C3.6175,2 4.06522,1.552285 4.06522,1 C4.06522,0.447715 3.6175,0 3.06522,0 L3.06522,2 Z M1,2 L3.06522,2 L3.06522,0 L1,0 L1,2 Z" id="path26_stroke"></path>
                                </g>
                            </g>
                            <g id="Vector" transform="translate(16.000000, 0.000000)" fill="#4F69F6">
                                <g id="path27_stroke-link" transform="translate(0.520000, 0.000000)">
                                    <path d="M3.47826,4 L4.24922,4.63688 L4.77534,4 L4.24922,3.36312 L3.47826,4 Z M1.770962,0.363119 C1.419222,-0.06267 0.788909,-0.1227 0.363119,0.229038 C-0.06267,0.580778 -0.1227,1.211091 0.229038,1.636881 L1.770962,0.363119 Z M0.229038,6.36312 C-0.1227,6.78891 -0.06267,7.41922 0.363119,7.77096 C0.788909,8.1227 1.419222,8.06267 1.770962,7.63688 L0.229038,6.36312 Z M4.24922,3.36312 L1.770962,0.363119 L0.229038,1.636881 L2.7073,4.63688 L4.24922,3.36312 Z M2.7073,3.36312 L0.229038,6.36312 L1.770962,7.63688 L4.24922,4.63688 L2.7073,3.36312 Z" id="path27_stroke"></path>
                                </g>
                            </g>
                        </g>
                        <g id="Group" transform="translate(0.000000, 11.000000)" fill-rule="nonzero">
                            <g id="Line" transform="translate(2.000000, 3.000000)">
                                <g id="path21_fill-link" transform="translate(4.110000, 0.500000) rotate(-180.000000) translate(-4.110000, -0.500000) translate(1.610000, 0.000000)" fill="#FFFFFF">
                                    <path d="M0,0 L4.95652,0 L0,0 Z" id="path21_fill"></path>
                                </g>
                                <g id="path22_stroke-link" transform="translate(4.110000, 1.000000) rotate(-180.000000) translate(-4.110000, -1.000000) translate(0.610000, 0.000000)" fill="#4F69F6">
                                    <path d="M1,0 C0.447715,0 0,0.447715 0,1 C0,1.552285 0.447715,2 1,2 L1,0 Z M5.95652,2 C6.50881,2 6.95652,1.552285 6.95652,1 C6.95652,0.447715 6.50881,0 5.95652,0 L5.95652,2 Z M1,2 L5.95652,2 L5.95652,0 L1,0 L1,2 Z" id="path22_stroke"></path>
                                </g>
                            </g>
                            <g id="Line" transform="translate(10.000000, 3.000000)" fill="#4F69F6">
                                <g id="path23_fill-link" transform="translate(3.630000, 0.500000) rotate(-180.000000) translate(-3.630000, -0.500000) translate(1.630000, 0.000000)">
                                    <path d="M0,0 L3.71739,0 L0,0 Z" id="path23_fill"></path>
                                </g>
                                <g id="path24_stroke-link" transform="translate(3.630000, 1.000000) rotate(-180.000000) translate(-3.630000, -1.000000) translate(0.630000, 0.000000)">
                                    <path d="M1,0 C0.447715,0 0,0.447715 0,1 C0,1.552285 0.447715,2 1,2 L1,0 Z M4.71739,2 C5.26968,2 5.71739,1.552285 5.71739,1 C5.71739,0.447715 5.26968,0 4.71739,0 L4.71739,2 Z M1,2 L4.71739,2 L4.71739,0 L1,0 L1,2 Z" id="path24_stroke"></path>
                                </g>
                            </g>
                            <g id="Line" transform="translate(17.000000, 3.000000)">
                                <g id="path25_fill-link" transform="translate(2.500000, 0.500000) rotate(-180.000000) translate(-2.500000, -0.500000) translate(1.000000, 0.000000)" fill="#FFFFFF">
                                    <path d="M0,0 L2.06522,0 L0,0 Z" id="path25_fill"></path>
                                </g>
                                <g id="path26_stroke-link" transform="translate(2.500000, 1.000000) rotate(-180.000000) translate(-2.500000, -1.000000) " fill="#4F69F6">
                                    <path d="M1,0 C0.447715,0 0,0.447715 0,1 C0,1.552285 0.447715,2 1,2 L1,0 Z M3.06522,2 C3.6175,2 4.06522,1.552285 4.06522,1 C4.06522,0.447715 3.6175,0 3.06522,0 L3.06522,2 Z M1,2 L3.06522,2 L3.06522,0 L1,0 L1,2 Z" id="path26_stroke"></path>
                                </g>
                            </g>
                            <g id="Vector" fill="#4F69F6">
                                <g id="path27_stroke-link" transform="translate(2.980000, 4.000000) rotate(-180.000000) translate(-2.980000, -4.000000) translate(0.480000, 0.000000)">
                                    <path d="M3.47826,4 L4.24922,4.63688 L4.77534,4 L4.24922,3.36312 L3.47826,4 Z M1.770962,0.363119 C1.419222,-0.06267 0.788909,-0.1227 0.363119,0.229038 C-0.06267,0.580778 -0.1227,1.211091 0.229038,1.636881 L1.770962,0.363119 Z M0.229038,6.36312 C-0.1227,6.78891 -0.06267,7.41922 0.363119,7.77096 C0.788909,8.1227 1.419222,8.06267 1.770962,7.63688 L0.229038,6.36312 Z M4.24922,3.36312 L1.770962,0.363119 L0.229038,1.636881 L2.7073,4.63688 L4.24922,3.36312 Z M2.7073,3.36312 L0.229038,6.36312 L1.770962,7.63688 L4.24922,4.63688 L2.7073,3.36312 Z" id="path27_stroke"></path>
                                </g>
                            </g>
                        </g>
                    </g>
                    <path d="M38,54 L66.3127418,54" id="Path-2" stroke="#4F69F6" stroke-width="2" fill="none" stroke-linecap="round"></path>
                    <path d="M144,18 L172.312742,18" id="Path-2-Copy" stroke="#4F69F6" stroke-width="2" fill="none" stroke-linecap="round"></path>
                    <path d="M38,61 L66.3127418,61" id="Path-2" stroke="#4F69F6" stroke-width="2" fill="none" stroke-linecap="round"></path>
                    <path d="M144,25 L172.312742,25" id="Path-2-Copy-2" stroke="#4F69F6" stroke-width="2" fill="none" stroke-linecap="round"></path>
                    <path d="M28,68 L56.3127418,68" id="Path-2" stroke="#4F69F6" stroke-width="2" fill="none" stroke-linecap="round"></path>
                    <path d="M144,32 L172.312742,32" id="Path-2-Copy-3" stroke="#4F69F6" stroke-width="2" fill="none" stroke-linecap="round"></path>
                </g>
            </g>
        </g>
    </g>
</svg>