<?xml version="1.0" encoding="UTF-8"?>
<svg width="74px" height="57px" viewBox="0 0 74 57" version="1.1" xmlns="http://www.w3.org/2000/svg" xmlns:xlink="http://www.w3.org/1999/xlink">
    <!-- Generator: Sketch 48.2 (47327) - http://www.bohemiancoding.com/sketch -->
    <title>ic_business</title>
    <desc>Created with Sketch.</desc>
    <defs></defs>
    <g id="Business" stroke="none" stroke-width="1" fill="none" fill-rule="evenodd" transform="translate(-503.000000, -4736.000000)">
        <g id="ic_business" transform="translate(500.000000, 4724.000000)">
            <rect id="Rectangle-4" x="0" y="0" width="80" height="80"></rect>
            <g id="SME-icon" transform="translate(3.000000, 12.000000)" fill-rule="nonzero">
                <g id="Rectangle-6" transform="translate(6.000000, 21.000000)">
                    <g id="path0_fill-link" transform="translate(1.000000, 1.000000)" fill="#FFFFFF">
                        <path d="M0,0 L60,0 L60,31 C60,32.6569 58.6569,34 57,34 L3,34 C1.34315,34 0,32.6569 0,31 L0,0 Z" id="path0_fill"></path>
                    </g>
                    <g id="path1_stroke-link" fill="#4F69F6">
                        <path d="M1,1 L1,0 L0,0 L0,1 L1,1 Z M61,1 L62,1 L62,0 L61,0 L61,1 Z M1,2 L61,2 L61,0 L1,0 L1,2 Z M60,1 L60,32 L62,32 L62,1 L60,1 Z M58,34 L4,34 L4,36 L58,36 L58,34 Z M2,32 L2,1 L0,1 L0,32 L2,32 Z M4,34 C2.89543,34 2,33.1046 2,32 L0,32 C0,34.2091 1.790861,36 4,36 L4,34 Z M60,32 C60,33.1046 59.1046,34 58,34 L58,36 C60.2091,36 62,34.2091 62,32 L60,32 Z" id="path1_stroke"></path>
                    </g>
                </g>
                <g id="Rectangle-7" transform="translate(12.000000, 30.000000)">
                    <g id="path2_fill-link" transform="translate(1.000000, 1.000000)" fill="#FFFFFF">
                        <path d="M0,1 C0,0.447715 0.447715,0 1,0 L12,0 C12.5523,0 13,0.447715 13,1 L13,18 C13,18.5523 12.5523,19 12,19 L1,19 C0.447715,19 0,18.5523 0,18 L0,1 Z" id="path2_fill"></path>
                    </g>
                    <g id="path3_stroke-link" fill="#4F69F6">
                        <path d="M2,2 L13,2 L13,0 L2,0 L2,2 Z M13,2 L13,19 L15,19 L15,2 L13,2 Z M13,19 L2,19 L2,21 L13,21 L13,19 Z M2,19 L2,2 L0,2 L0,19 L2,19 Z M2,19 L0,19 C0,20.1046 0.895431,21 2,21 L2,19 Z M13,19 L13,21 C14.1046,21 15,20.1046 15,19 L13,19 Z M13,2 L15,2 C15,0.895431 14.1046,0 13,0 L13,2 Z M2,0 C0.895431,0 0,0.895431 0,2 L2,2 L2,0 Z" id="path3_stroke"></path>
                    </g>
                </g>
                <g id="Rectangle-7.1" transform="translate(31.000000, 30.000000)">
                    <g id="path4_fill-link" transform="translate(1.000000, 1.000000)" fill="#FFFFFF">
                        <path d="M0,1 C0,0.447715 0.447715,0 1,0 L28,0 C28.5523,0 29,0.447715 29,1 L29,10 C29,10.5523 28.5523,11 28,11 L1,11 C0.447715,11 0,10.5523 0,10 L0,1 Z" id="path4_fill"></path>
                    </g>
                    <g id="path5_stroke-link" fill="#4F69F6">
                        <path d="M2,2 L29,2 L29,0 L2,0 L2,2 Z M29,2 L29,11 L31,11 L31,2 L29,2 Z M29,11 L2,11 L2,13 L29,13 L29,11 Z M2,11 L2,2 L0,2 L0,11 L2,11 Z M2,11 L0,11 C0,12.1046 0.895431,13 2,13 L2,11 Z M29,11 L29,13 C30.1046,13 31,12.1046 31,11 L29,11 Z M29,2 L31,2 C31,0.895431 30.1046,0 29,0 L29,2 Z M2,0 C0.895431,0 0,0.895431 0,2 L2,2 L2,0 Z" id="path5_stroke"></path>
                    </g>
                </g>
                <g id="Rectangle-8" transform="translate(36.000000, 32.000000)" fill="#DCEEFF">
                    <g id="path6_fill-link">
                        <path d="M0,0 L24,0 L24,5 L2,5 C0.895431,5 0,4.10457 0,3 L0,0 Z" id="path6_fill"></path>
                    </g>
                </g>
                <g id="Rectangle-5" transform="translate(25.000000, 0.000000)">
                    <g id="path7_fill-link" transform="translate(1.000000, 1.000000)" fill="#FFFFFF">
                        <path d="M0,0 L11,0 L11,19.9231 C11,22.727 8.72698,25 5.92308,25 C2.65185,25 0,22.3481 0,19.0769 L0,0 Z" id="path7_fill"></path>
                    </g>
                    <g id="path8_stroke-link" fill="#4F69F6">
                        <path d="M1,1 L1,0 L0,0 L0,1 L1,1 Z M12,1 L13,1 L13,0 L12,0 L12,1 Z M1,2 L12,2 L12,0 L1,0 L1,2 Z M11,1 L11,20.9231 L13,20.9231 L13,1 L11,1 Z M2,20.0769 L2,1 L0,1 L0,20.0769 L2,20.0769 Z M6.92308,25 C4.20414,25 2,22.7959 2,20.0769 L0,20.0769 C0,23.9004 3.09957,27 6.92308,27 L6.92308,25 Z M11,20.9231 C11,23.1747 9.1747,25 6.92308,25 L6.92308,27 C10.27927,27 13,24.2793 13,20.9231 L11,20.9231 Z" id="path8_stroke"></path>
                    </g>
                </g>
                <g id="Rectangle-5.1" transform="translate(36.000000, 0.000000)">
                    <g id="path7_fill-link" transform="translate(1.000000, 1.000000)" fill="#FFFFFF">
                        <path d="M0,0 L11,0 L11,19.9231 C11,22.727 8.72698,25 5.92308,25 C2.65185,25 0,22.3481 0,19.0769 L0,0 Z" id="path7_fill"></path>
                    </g>
                    <g id="path8_stroke-link" fill="#4F69F6">
                        <path d="M1,1 L1,0 L0,0 L0,1 L1,1 Z M12,1 L13,1 L13,0 L12,0 L12,1 Z M1,2 L12,2 L12,0 L1,0 L1,2 Z M11,1 L11,20.9231 L13,20.9231 L13,1 L11,1 Z M2,20.0769 L2,1 L0,1 L0,20.0769 L2,20.0769 Z M6.92308,25 C4.20414,25 2,22.7959 2,20.0769 L0,20.0769 C0,23.9004 3.09957,27 6.92308,27 L6.92308,25 Z M11,20.9231 C11,23.1747 9.1747,25 6.92308,25 L6.92308,27 C10.27927,27 13,24.2793 13,20.9231 L11,20.9231 Z" id="path8_stroke"></path>
                    </g>
                </g>
                <g id="Rectangle-5.2" transform="translate(47.000000, 0.000000)">
                    <g id="path9_fill-link" transform="translate(1.000000, 1.000000)" fill="#FFFFFF">
                        <path d="M0,0 L8.5,0 L12.167,17.9683 C12.865,21.3885 10.3265,24.6175 6.83821,24.7467 C3.10322,24.8851 0,21.8947 0,18.1571 L0,0 Z" id="path9_fill"></path>
                    </g>
                    <g id="path10_stroke-link" fill="#4F69F6">
                        <path d="M1,1 L1,0 L0,0 L0,1 L1,1 Z M9.5,1 L10.4798,0.80004 L10.31653,0 L9.5,0 L9.5,1 Z M1,2 L9.5,2 L9.5,0 L1,0 L1,2 Z M8.5202,1.19996 L12.1872,19.1682 L14.1468,18.7683 L10.4798,0.80004 L8.5202,1.19996 Z M2,19.1571 L2,1 L0,1 L0,19.1571 L2,19.1571 Z M7.8012,24.7474 C4.63262,24.8648 2,22.3279 2,19.1571 L0,19.1571 C0,23.4615 3.57382,26.9054 7.87522,26.746 L7.8012,24.7474 Z M12.1872,19.1682 C12.7617,21.9833 10.67236,24.6411 7.8012,24.7474 L7.87522,26.746 C11.9807,26.594 14.9683,22.7937 14.1468,18.7683 L12.1872,19.1682 Z" id="path10_stroke"></path>
                    </g>
                </g>
                <g id="Rectangle-5.3" transform="translate(54.000000, 0.000000)">
                    <g id="path11_fill-link" transform="translate(2.500000, 1.000000)" fill="#FFFFFF">
                        <path d="M0,0 L9,0 L15.5544,16.9035 C16.9956,20.6202 14.3414,24.6485 10.3576,24.7908 C6.99614,24.9109 4.05752,22.5418 3.46164,19.2313 L0,0 Z" id="path11_fill"></path>
                    </g>
                    <g id="path12_stroke-link" transform="translate(0.500000, 0.000000)" fill="#4F69F6">
                        <path d="M2,1 L2,0 L0.80393,0 L1.015817,1.177153 L2,1 Z M11,1 L11.93236,0.638472 L11.68479,0 L11,0 L11,1 Z M2,2 L11,2 L11,0 L2,0 L2,2 Z M10.06764,1.361528 L16.6221,18.2651 L18.4868,17.542 L11.93236,0.638472 L10.06764,1.361528 Z M6.44582,20.0542 L2.984183,0.822847 L1.015817,1.177153 L4.47746,20.4085 L6.44582,20.0542 Z M12.3219,24.7914 C9.45759,24.8937 6.95358,22.875 6.44582,20.0542 L4.47746,20.4085 C5.16146,24.2085 8.53468,26.928 12.3933,26.7902 L12.3219,24.7914 Z M16.6221,18.2651 C17.8146,21.3404 15.6183,24.6737 12.3219,24.7914 L12.3933,26.7902 C17.0644,26.6233 20.1766,21.9 18.4868,17.542 L16.6221,18.2651 Z" id="path12_stroke"></path>
                    </g>
                </g>
                <g id="Rectangle-5.4" transform="translate(12.000000, 0.000000)">
                    <g id="path9_fill-link" transform="translate(7.500000, 13.500000) scale(-1, 1) translate(-7.500000, -13.500000) translate(1.000000, 1.000000)" fill="#FFFFFF">
                        <path d="M0,0 L8.5,0 L12.167,17.9683 C12.865,21.3885 10.3265,24.6175 6.83821,24.7467 C3.10322,24.8851 0,21.8947 0,18.1571 L0,0 Z" id="path9_fill"></path>
                    </g>
                    <g id="path10_stroke-link" transform="translate(7.500000, 13.500000) scale(-1, 1) translate(-7.500000, -13.500000) " fill="#4F69F6">
                        <path d="M1,1 L1,0 L0,0 L0,1 L1,1 Z M9.5,1 L10.4798,0.80004 L10.31653,0 L9.5,0 L9.5,1 Z M1,2 L9.5,2 L9.5,0 L1,0 L1,2 Z M8.5202,1.19996 L12.1872,19.1682 L14.1468,18.7683 L10.4798,0.80004 L8.5202,1.19996 Z M2,19.1571 L2,1 L0,1 L0,19.1571 L2,19.1571 Z M7.8012,24.7474 C4.63262,24.8648 2,22.3279 2,19.1571 L0,19.1571 C0,23.4615 3.57382,26.9054 7.87522,26.746 L7.8012,24.7474 Z M12.1872,19.1682 C12.7617,21.9833 10.67236,24.6411 7.8012,24.7474 L7.87522,26.746 C11.9807,26.594 14.9683,22.7937 14.1468,18.7683 L12.1872,19.1682 Z" id="path10_stroke"></path>
                    </g>
                </g>
                <g id="Rectangle-5.5">
                    <g id="path11_fill-link" transform="translate(9.500000, 13.500000) scale(-1, 1) translate(-9.500000, -13.500000) translate(1.500000, 1.000000)" fill="#FFFFFF">
                        <path d="M0,0 L9,0 L15.5544,16.9035 C16.9956,20.6202 14.3414,24.6485 10.3576,24.7908 C6.99614,24.9109 4.05752,22.5418 3.46164,19.2313 L0,0 Z" id="path11_fill"></path>
                    </g>
                    <g id="path12_stroke-link" transform="translate(10.000000, 13.500000) scale(-1, 1) translate(-10.000000, -13.500000) translate(0.500000, 0.000000)" fill="#4F69F6">
                        <path d="M2,1 L2,0 L0.80393,0 L1.015817,1.177153 L2,1 Z M11,1 L11.93236,0.638472 L11.68479,0 L11,0 L11,1 Z M2,2 L11,2 L11,0 L2,0 L2,2 Z M10.06764,1.361528 L16.6221,18.2651 L18.4868,17.542 L11.93236,0.638472 L10.06764,1.361528 Z M6.44582,20.0542 L2.984183,0.822847 L1.015817,1.177153 L4.47746,20.4085 L6.44582,20.0542 Z M12.3219,24.7914 C9.45759,24.8937 6.95358,22.875 6.44582,20.0542 L4.47746,20.4085 C5.16146,24.2085 8.53468,26.928 12.3933,26.7902 L12.3219,24.7914 Z M16.6221,18.2651 C17.8146,21.3404 15.6183,24.6737 12.3219,24.7914 L12.3933,26.7902 C17.0644,26.6233 20.1766,21.9 18.4868,17.542 L16.6221,18.2651 Z" id="path12_stroke"></path>
                    </g>
                </g>
                <g id="Union" transform="translate(5.000000, 2.000000)" fill="#DCEEFF">
                    <g id="path13_fill-link" transform="translate(0.380000, 0.000000)">
                        <path d="M5.78003,0 L11.6179,0 L8.25,15.5764 C7.86621,17.3518 6.46582,18.7305 4.68481,19.0867 C1.64185,19.6953 -0.864014,16.6875 0.283936,13.8044 L5.78003,0 Z M13.6179,0 L19.6179,0 L19.6179,15.1721 C19.6179,17.7419 17.3755,19.7361 14.823,19.4358 C12.7852,19.196 11.3369,17.3357 11.6045,15.3013 L13.6179,0 Z M30.6179,0 L23.6179,0 L23.6179,15.4456 C23.6179,17.2649 24.8982,18.8328 26.6807,19.1965 C28.7146,19.6116 30.6179,18.0574 30.6179,15.9814 L30.6179,0 Z M45.6179,0 L50.9512,0 L53.1311,15.5315 C53.3987,17.4385 52.0532,19.1956 50.1423,19.4343 C47.74,19.7349 45.6179,17.8616 45.6179,15.4404 L45.6179,0 Z M53.6179,0 L59.4558,0 L64.9519,13.8044 C66.0999,16.6875 63.594,19.6953 60.551,19.0867 C58.77,18.7305 57.3696,17.3518 56.9858,15.5764 L53.6179,0 Z M41.6179,0 L33.6179,0 L33.6179,15.6924 C33.6179,18.0713 35.5466,20 37.9255,20 C39.9648,20 41.6179,18.3469 41.6179,16.3076 L41.6179,0 Z" id="path13_fill"></path>
                    </g>
                </g>
            </g>
        </g>
    </g>
</svg>