<?xml version="1.0" encoding="UTF-8"?>
<svg width="67px" height="69px" viewBox="0 0 67 69" version="1.1" xmlns="http://www.w3.org/2000/svg" xmlns:xlink="http://www.w3.org/1999/xlink">
    <!-- Generator: Sketch 48.2 (47327) - http://www.bohemiancoding.com/sketch -->
    <title>ic_Enterprise</title>
    <desc>Created with Sketch.</desc>
    <defs></defs>
    <g id="Business" stroke="none" stroke-width="1" fill="none" fill-rule="evenodd" transform="translate(-1221.000000, -4729.000000)">
        <g id="ic_Enterprise" transform="translate(1214.000000, 4724.000000)">
            <rect id="Rectangle-4-Copy-2" x="0" y="0" width="80" height="80"></rect>
            <polygon id="path0_fill" fill="#4F69F6" fill-rule="nonzero" points="38 60 46 60 46 72 38 72"></polygon>
            <path d="M38,60 L38,59 L37,59 L37,60 L38,60 Z M46,60 L47,60 L47,59 L46,59 L46,60 Z M46,72 L46,73 L47,73 L47,72 L46,72 Z M38,72 L37,72 L37,73 L38,73 L38,72 Z M38,61 L46,61 L46,59 L38,59 L38,61 Z M45,60 L45,72 L47,72 L47,60 L45,60 Z M46,71 L38,71 L38,73 L46,73 L46,71 Z M39,72 L39,60 L37,60 L37,72 L39,72 Z" id="path1_stroke" fill="#4F69F6" fill-rule="nonzero"></path>
            <path d="M8,72 C7.447715,72 7,72.44772 7,73 C7,73.552285 7.447715,74 8,74 L8,72 Z M73,74 C73.5523,74 74,73.552285 74,73 C74,72.44772 73.5523,72 73,72 L73,74 Z M8,74 L73,74 L73,72 L8,72 L8,74 Z" id="path2_stroke" fill="#4F69F6" fill-rule="nonzero"></path>
            <path d="M29,27 C29,25.895431 29.895431,25 31,25 L52,25 C53.1046,25 54,25.895431 54,27 L54,73 L29,73 L29,27 Z" id="path3_fill" fill="#FFFFFF" fill-rule="nonzero"></path>
            <path d="M54,73 L54,74 L55,74 L55,73 L54,73 Z M29,73 L28,73 L28,74 L29,74 L29,73 Z M31,26 L52,26 L52,24 L31,24 L31,26 Z M53,27 L53,73 L55,73 L55,27 L53,27 Z M54,72 L29,72 L29,74 L54,74 L54,72 Z M30,73 L30,27 L28,27 L28,73 L30,73 Z M52,26 C52.5523,26 53,26.44772 53,27 L55,27 C55,25.343146 53.6569,24 52,24 L52,26 Z M31,24 C29.343146,24 28,25.343146 28,27 L30,27 C30,26.44772 30.44772,26 31,26 L31,24 Z" id="path4_stroke" fill="#4F69F6" fill-rule="nonzero"></path>
            <path d="M36,32 C36,30.895431 36.895431,30 38,30 L53,30 L53,72 L36,72 L36,32 Z" id="path5_fill" fill="#DCEEFF" fill-rule="nonzero"></path>
            <path d="M37,60 C37,59.447715 37.447715,59 38,59 L45,59 C45.55229,59 46,59.447715 46,60 L46,73 L37,73 L37,60 Z" id="path6_fill" fill="#4F69F6" fill-rule="nonzero"></path>
            <path d="M46,73 L46,74 L47,74 L47,73 L46,73 Z M37,73 L36,73 L36,74 L37,74 L37,73 Z M38,60 L45,60 L45,58 L38,58 L38,60 Z M45,60 L45,73 L47,73 L47,60 L45,60 Z M46,72 L37,72 L37,74 L46,74 L46,72 Z M38,73 L38,60 L36,60 L36,73 L38,73 Z M45,60 L47,60 C47,58.895431 46.10457,58 45,58 L45,60 Z M38,58 C36.895431,58 36,58.895431 36,60 L38,60 L38,58 Z" id="path7_stroke" fill="#4F69F6" fill-rule="nonzero"></path>
            <path d="M35,20 C35,19.447715 35.447715,19 36,19 L47,19 C47.5523,19 48,19.447715 48,20 L48,25 L35,25 L35,20 Z" id="path8_fill" fill="#FFFFFF" fill-rule="nonzero"></path>
            <path d="M48,25 L48,26 L49,26 L49,25 L48,25 Z M35,25 L34,25 L34,26 L35,26 L35,25 Z M36,20 L47,20 L47,18 L36,18 L36,20 Z M47,20 L47,25 L49,25 L49,20 L47,20 Z M48,24 L35,24 L35,26 L48,26 L48,24 Z M36,25 L36,20 L34,20 L34,25 L36,25 Z M47,20 L49,20 C49,18.895431 48.1046,18 47,18 L47,20 Z M36,18 C34.895431,18 34,18.895431 34,20 L36,20 L36,18 Z" id="path9_stroke" fill="#4F69F6" fill-rule="nonzero"></path>
            <path d="M37.5,9.5 C36.947715,9.5 36.5,9.94772 36.5,10.5 C36.5,11.052285 36.947715,11.5 37.5,11.5 L37.5,9.5 Z M46.5,11.5 C47.0523,11.5 47.5,11.052285 47.5,10.5 C47.5,9.94772 47.0523,9.5 46.5,9.5 L46.5,11.5 Z M37.5,11.5 L46.5,11.5 L46.5,9.5 L37.5,9.5 L37.5,11.5 Z" id="path10_stroke" fill="#4F69F6" fill-rule="nonzero" transform="translate(42.000000, 10.500000) rotate(-90.000000) translate(-42.000000, -10.500000) "></path>
            <path d="M16,39 C16,37.895431 16.895431,37 18,37 L29,37 L29,73 L16,73 L16,39 Z" id="path11_fill" fill="#FFFFFF" fill-rule="nonzero"></path>
            <path d="M29,37 L30,37 L30,36 L29,36 L29,37 Z M29,73 L29,74 L30,74 L30,73 L29,73 Z M16,73 L15,73 L15,74 L16,74 L16,73 Z M18,38 L29,38 L29,36 L18,36 L18,38 Z M28,37 L28,73 L30,73 L30,37 L28,37 Z M29,72 L16,72 L16,74 L29,74 L29,72 Z M17,73 L17,39 L15,39 L15,73 L17,73 Z M18,36 C16.343146,36 15,37.343146 15,39 L17,39 C17,38.44772 17.44772,38 18,38 L18,36 Z" id="path12_stroke" fill="#4F69F6" fill-rule="nonzero"></path>
            <path d="M20,43 C20,41.895431 20.895431,41 22,41 L28,41 L28,72 L20,72 L20,43 Z" id="path13_fill" fill="#DCEEFF" fill-rule="nonzero"></path>
            <path d="M54,37 L65,37 C66.1046,37 67,37.895431 67,39 L67,73 L54,73 L54,37 Z" id="path14_fill" fill="#FFFFFF" fill-rule="nonzero"></path>
            <path d="M54,37 L54,36 L53,36 L53,37 L54,37 Z M67,73 L67,74 L68,74 L68,73 L67,73 Z M54,73 L53,73 L53,74 L54,74 L54,73 Z M54,38 L65,38 L65,36 L54,36 L54,38 Z M66,39 L66,73 L68,73 L68,39 L66,39 Z M67,72 L54,72 L54,74 L67,74 L67,72 Z M55,73 L55,37 L53,37 L53,73 L55,73 Z M65,38 C65.5523,38 66,38.44772 66,39 L68,39 C68,37.343146 66.6569,36 65,36 L65,38 Z" id="path15_stroke" fill="#4F69F6" fill-rule="nonzero"></path>
            <polygon id="path16_fill" fill="#DCEEFF" fill-rule="nonzero" points="58 41 66 41 66 72 58 72"></polygon>
            <path d="M33,32 C33,31.447754 33.4478,31 34,31 L39,31 C39.5522,31 40,31.447754 40,32 C40,32.55225 39.5522,33 39,33 L34,33 C33.4478,33 33,32.55225 33,32 Z M33,38 C33,37.44775 33.4478,37 34,37 L39,37 C39.5522,37 40,37.44775 40,38 C40,38.55225 39.5522,39 39,39 L34,39 C33.4478,39 33,38.55225 33,38 Z M34,43 C33.4478,43 33,43.4478 33,44 C33,44.5522 33.4478,45 34,45 L39,45 C39.5522,45 40,44.5522 40,44 C40,43.4478 39.5522,43 39,43 L34,43 Z M33,50 C33,49.4478 33.4478,49 34,49 L39,49 C39.5522,49 40,49.4478 40,50 C40,50.5522 39.5522,51 39,51 L34,51 C33.4478,51 33,50.5522 33,50 Z M21,43 C20.447754,43 20,43.4478 20,44 C20,44.5522 20.447754,45 21,45 L24,45 C24.55225,45 25,44.5522 25,44 C25,43.4478 24.55225,43 24,43 L21,43 Z M21,49 C20.447754,49 20,49.4478 20,50 C20,50.5522 20.447754,51 21,51 L24,51 C24.55225,51 25,50.5522 25,50 C25,49.4478 24.55225,49 24,49 L21,49 Z M20,56 C20,55.4478 20.447754,55 21,55 L24,55 C24.55225,55 25,55.4478 25,56 C25,56.5522 24.55225,57 24,57 L21,57 C20.447754,57 20,56.5522 20,56 Z M44,31 C43.4478,31 43,31.447754 43,32 C43,32.55225 43.4478,33 44,33 L49,33 C49.5522,33 50,32.55225 50,32 C50,31.447754 49.5522,31 49,31 L44,31 Z M44,37 C43.4478,37 43,37.44775 43,38 C43,38.55225 43.4478,39 44,39 L49,39 C49.5522,39 50,38.55225 50,38 C50,37.44775 49.5522,37 49,37 L44,37 Z M43,44 C43,43.4478 43.4478,43 44,43 L49,43 C49.5522,43 50,43.4478 50,44 C50,44.5522 49.5522,45 49,45 L44,45 C43.4478,45 43,44.5522 43,44 Z M44,49 C43.4478,49 43,49.4478 43,50 C43,50.5522 43.4478,51 44,51 L49,51 C49.5522,51 50,50.5522 50,50 C50,49.4478 49.5522,49 49,49 L44,49 Z M59,43 C58.4478,43 58,43.4478 58,44 C58,44.5522 58.4478,45 59,45 L62,45 C62.5522,45 63,44.5522 63,44 C63,43.4478 62.5522,43 62,43 L59,43 Z M59,49 C58.4478,49 58,49.4478 58,50 C58,50.5522 58.4478,51 59,51 L62,51 C62.5522,51 63,50.5522 63,50 C63,49.4478 62.5522,49 62,49 L59,49 Z M58,56 C58,55.4478 58.4478,55 59,55 L62,55 C62.5522,55 63,55.4478 63,56 C63,56.5522 62.5522,57 62,57 L59,57 C58.4478,57 58,56.5522 58,56 Z" id="path17_fill" fill="#4F69F6" fill-rule="nonzero"></path>
        </g>
    </g>
</svg>