<?xml version="1.0" encoding="UTF-8"?>
<svg width="65px" height="60px" viewBox="0 0 65 60" version="1.1" xmlns="http://www.w3.org/2000/svg" xmlns:xlink="http://www.w3.org/1999/xlink">
    <!-- Generator: Sketch 48.2 (47327) - http://www.bohemiancoding.com/sketch -->
    <title>ic_Entrepreneurs</title>
    <desc>Created with Sketch.</desc>
    <defs></defs>
    <g id="Business" stroke="none" stroke-width="1" fill="none" fill-rule="evenodd" transform="translate(-149.000000, -4734.000000)">
        <g id="ic_Entrepreneurs" transform="translate(141.000000, 4724.000000)">
            <rect id="Rectangle-4" x="0" y="0" width="80" height="80"></rect>
            <g id="Group-8" transform="translate(8.000000, 10.000000)">
                <path d="M8.06279295,59 C8.97841169,45.0283162 19.7932981,34 33,34 C46.2067019,34 57.0215883,45.0283162 57.9372071,59 L8.06279295,59 Z" id="Combined-Shape" stroke="#4F69F6" stroke-width="2" fill="#FFFFFF"></path>
                <g id="Group-7">
                    <g id="path0_stroke-link" transform="translate(0.000000, 58.000000)" fill="#4F69F6" fill-rule="nonzero">
                        <path d="M1,0 C0.447715,0 0,0.447715 0,1 C0,1.552285 0.447715,2 1,2 L1,0 Z M63.5,2 C64.0523,2 64.5,1.552285 64.5,1 C64.5,0.447715 64.0523,0 63.5,0 L63.5,2 Z M1,2 L63.5,2 L63.5,0 L1,0 L1,2 Z" id="path0_stroke"></path>
                    </g>
                    <g id="path3_fill-link" transform="translate(13.250000, 33.600000)" fill="#FFFFFF" fill-rule="nonzero" stroke="#4F69F6" stroke-width="2">
                        <path d="M0,3.84846476 C0,1.7230154 1.79086,0 4,0 L34.75,0 C36.9591,0 38.75,1.7230154 38.75,3.84846476 L38.75,25.3965 L0,25.3965 L0,3.84846476 Z" id="path3_fill"></path>
                    </g>
                    <g id="path5_fill-link" transform="translate(18.000000, 38.000000)">
                        <path d="M0,4 C0,1.79086 1.79086,0 4,0 L28,0 C30.2091,0 32,1.79086 32,4 L32,20 L0,20 L0,4 Z" id="path5_fill" fill="#DCEEFF" fill-rule="nonzero"></path>
                        <circle id="Oval-3" stroke="#4F69F6" stroke-width="2" cx="15" cy="7" r="3"></circle>
                    </g>
                    <g id="path8_stroke-link" transform="translate(41.000000, 18.780000)" fill="#4F69F6" fill-rule="nonzero">
                        <path d="M5,3.51396 C5,4.35534 4.32319,5.02791 3.5,5.02791 L3.5,7.02791 C5.43824,7.02791 7,5.4494 7,3.51396 L5,3.51396 Z M3.5,5.02791 C2.67681,5.02791 2,4.35534 2,3.51396 L0,3.51396 C0,5.4494 1.561763,7.02791 3.5,7.02791 L3.5,5.02791 Z M2,3.51396 C2,2.67257 2.67681,2 3.5,2 L3.5,0 C1.561763,0 0,1.578507 0,3.51396 L2,3.51396 Z M3.5,2 C4.32319,2 5,2.67257 5,3.51396 L7,3.51396 C7,1.578507 5.43824,0 3.5,0 L3.5,2 Z" id="path8_stroke"></path>
                    </g>
                    <g id="path8_stroke-link" transform="translate(17.250000, 18.780000)" fill="#FFFFFF" fill-rule="nonzero">
                        <path d="M5,3.51396 C5,4.35534 4.32319,5.02791 3.5,5.02791 L3.5,7.02791 C5.43824,7.02791 7,5.4494 7,3.51396 L5,3.51396 Z M3.5,5.02791 C2.67681,5.02791 2,4.35534 2,3.51396 L0,3.51396 C0,5.4494 1.561763,7.02791 3.5,7.02791 L3.5,5.02791 Z M2,3.51396 C2,2.67257 2.67681,2 3.5,2 L3.5,0 C1.561763,0 0,1.578507 0,3.51396 L2,3.51396 Z M3.5,2 C4.32319,2 5,2.67257 5,3.51396 L7,3.51396 C7,1.578507 5.43824,0 3.5,0 L3.5,2 Z" id="path8_stroke"></path>
                    </g>
                    <g id="path9_fill-link" transform="translate(19.500000, 10.980000)" fill="#FFFFFF" fill-rule="nonzero" stroke="#4F69F6" stroke-width="2">
                        <path d="M0,0 L26.25,0 L26.25,9.5006 C26.25,16.7493 20.3737,22.6256 13.125,22.6256 C5.87626,22.6256 0,16.7493 0,9.5006 L0,0 Z" id="path9_fill"></path>
                    </g>
                    <g id="path11_fill-link" transform="translate(17.050000, 1.000000)" fill="#FFFFFF" fill-rule="nonzero">
                        <path d="M1.20495,15.6339 C-1.29509,12.4918 0.57992,8.51093 2.45492,6.83496 C6.20491,-3.84935 21.205,0.759932 26.205,2.43597 C29.955,3.69296 34.1354,8.03944 27.1354,10.5534 C20.1354,13.0673 11.205,12.4918 6.82998,11.2349 C6.82998,14.3773 3.70498,17.5197 1.20495,15.6339 Z" id="path11_fill"></path>
                    </g>
                    <g id="path12_stroke-link" transform="translate(16.050000, 0.000000)" fill="#4F69F6" fill-rule="nonzero">
                        <path d="M3.45492,7.83496 L4.12135,8.58053 L4.31325,8.409 L4.39849,8.16613 L3.45492,7.83496 Z M2.20495,16.6339 L1.422431,17.2565 L1.50144,17.3558 L1.602746,17.4323 L2.20495,16.6339 Z M7.82998,12.2349 L8.10612,11.2737 L6.82998,10.90709 L6.82998,12.2349 L7.82998,12.2349 Z M28.1354,11.5534 L27.7974,10.61224 L28.1354,11.5534 Z M27.205,3.43597 L26.8872,4.38412 L26.8872,4.38413 L27.205,3.43597 Z M2.78849,7.08939 C1.706707,8.05634 0.658515,9.64525 0.217914,11.4471 C-0.23008,13.2792 -0.05882,15.3949 1.422431,17.2565 L2.98747,16.0113 C1.968681,14.7309 1.827424,13.285 2.16068,11.9222 C2.50132,10.52907 3.32813,9.28954 4.12135,8.58053 L2.78849,7.08939 Z M1.602746,17.4323 C2.4307,18.0568 3.35311,18.2871 4.25948,18.1767 C5.07242,18.0628 5.96329,17.623 6.60783,17.0775 C7.91154,15.9538 8.82998,14.1106 8.82998,12.2349 L6.82998,12.2349 C6.82998,13.5016 6.18592,14.8008 5.30212,15.5625 C4.85291,15.9596 4.49377,16.1483 4.01765,16.1914 C3.63494,16.238 3.22922,16.1539 2.80716,15.8356 L1.602746,17.4323 Z M7.55384,13.196 C12.0899,14.4992 21.2394,15.0925 28.4734,12.4945 L27.7974,10.61224 C21.0313,13.0422 12.32,12.4844 8.10612,11.2737 L7.55384,13.196 Z M28.4734,12.4945 C30.312,11.8342 31.5911,10.99626 32.2959,9.96574 C33.0431,8.87312 33.0572,7.69395 32.6267,6.64393 C31.8297,4.70028 29.5253,3.15906 27.5228,2.48782 L26.8872,4.38413 C28.6346,4.96987 30.2955,6.23039 30.7762,7.40271 C30.9845,7.91069 30.9655,8.36806 30.645,8.83674 C30.282,9.3675 29.4587,10.01559 27.7974,10.61224 L28.4734,12.4945 Z M27.5228,2.48783 C25.0138,1.646836 19.8593,0.038604 14.8666,0.000349 C12.3644,-0.01 9.74473,0.410147 7.58408,1.516916 C5.34939,2.67682 3.53422,4.58945 2.51135,7.50378 L4.39849,8.16613 C5.25061,5.73831 6.7167,4.22048 8.50545,3.29204 C10.36825,2.31047 12.5142,1.984383 14.8558,2.00032 C19.5506,2.01464 24.3961,3.54907 26.8872,4.38412 L27.5228,2.48783 Z" id="path12_stroke"></path>
                    </g>
                    <g id="path13_fill-link" transform="translate(27.270000, 4.140000)" fill="#DCEEFF" fill-rule="nonzero">
                        <path d="M16.7319,4.36057 C17.217,6.30077 8.06516,6.3606 1.73182,5.8606 C0.231934,4.86051 -1.26796,1.56069 1.732,0.360681 C4.23199,-0.639336 15.7319,0.360736 16.7319,4.36057 Z" id="path13_fill"></path>
                    </g>
                </g>
            </g>
        </g>
    </g>
</svg>