<?xml version="1.0" encoding="UTF-8"?>
<svg width="50px" height="63px" viewBox="0 0 50 63" version="1.1" xmlns="http://www.w3.org/2000/svg" xmlns:xlink="http://www.w3.org/1999/xlink">
    <!-- Generator: Sketch 48.2 (47327) - http://www.bohemiancoding.com/sketch -->
    <title>ic_Merchants</title>
    <desc>Created with Sketch.</desc>
    <defs></defs>
    <g id="Business" stroke="none" stroke-width="1" fill="none" fill-rule="evenodd" transform="translate(-855.000000, -4733.000000)">
        <g id="ic_Merchants" transform="translate(844.000000, 4724.000000)">
            <rect id="Rectangle-4-Copy" x="0" y="0" width="80" height="80"></rect>
            <path d="M51,13 C51,11.34315 49.6569,10 48,10 L15,10 C13.34315,10 12,11.34315 12,13 L12,29.5 C12,30.8807 13.11929,32 14.5,32 C15.88071,32 17,33.1193 17,34.5 L17,58 C17,59.6569 18.34315,61 20,61 L43,61 C44.6569,61 46,59.6569 46,58 L46,34.5 C46,33.1193 47.1193,32 48.5,32 C49.8807,32 51,30.8807 51,29.5 L51,13 Z" id="path0_fill" fill="#FFFFFF" fill-rule="nonzero"></path>
            <path d="M15,11 L48,11 L48,9 L15,9 L15,11 Z M13,29.5 L13,13 L11,13 L11,29.5 L13,29.5 Z M18,58 L18,34.5 L16,34.5 L16,58 L18,58 Z M43,60 L20,60 L20,62 L43,62 L43,60 Z M45,34.5 L45,58 L47,58 L47,34.5 L45,34.5 Z M50,13 L50,29.5 L52,29.5 L52,13 L50,13 Z M48.5,33 C50.433,33 52,31.433 52,29.5 L50,29.5 C50,30.3284 49.3284,31 48.5,31 L48.5,33 Z M47,34.5 C47,33.6716 47.6716,33 48.5,33 L48.5,31 C46.567,31 45,32.567 45,34.5 L47,34.5 Z M43,62 C45.2091,62 47,60.2091 47,58 L45,58 C45,59.1046 44.1046,60 43,60 L43,62 Z M16,58 C16,60.2091 17.79086,62 20,62 L20,60 C18.89543,60 18,59.1046 18,58 L16,58 Z M14.5,33 C15.32843,33 16,33.6716 16,34.5 L18,34.5 C18,32.567 16.433,31 14.5,31 L14.5,33 Z M11,29.5 C11,31.433 12.567003,33 14.5,33 L14.5,31 C13.67157,31 13,30.3284 13,29.5 L11,29.5 Z M48,11 C49.1046,11 50,11.89543 50,13 L52,13 C52,10.790861 50.2091,9 48,9 L48,11 Z M15,9 C12.790861,9 11,10.790861 11,13 L13,13 C13,11.89543 13.89543,11 15,11 L15,9 Z" id="path1_stroke" fill="#4F69F6" fill-rule="nonzero"></path>
            <path d="M17,18 C17,16.895431 17.895431,16 19,16 L44,16 C45.1046,16 46,16.895431 46,18 L46,25 C46,26.1046 45.1046,27 44,27 L19,27 C17.895431,27 17,26.1046 17,25 L17,18 Z" id="path2_fill" fill="#FFFFFF" fill-rule="nonzero"></path>
            <path d="M19,17 L44,17 L44,15 L19,15 L19,17 Z M45,18 L45,25 L47,25 L47,18 L45,18 Z M44,26 L19,26 L19,28 L44,28 L44,26 Z M18,25 L18,18 L16,18 L16,25 L18,25 Z M19,26 C18.44772,26 18,25.55228 18,25 L16,25 C16,26.6569 17.343146,28 19,28 L19,26 Z M45,25 C45,25.55228 44.5523,26 44,26 L44,28 C45.6569,28 47,26.6569 47,25 L45,25 Z M44,17 C44.5523,17 45,17.44772 45,18 L47,18 C47,16.343146 45.6569,15 44,15 L44,17 Z M19,15 C17.343146,15 16,16.343146 16,18 L18,18 C18,17.44772 18.44772,17 19,17 L19,15 Z" id="path3_stroke" fill="#4F69F6" fill-rule="nonzero"></path>
            <path d="M21,21 C21,19.895431 21.895431,19 23,19 L45,19 L45,26 L21,26 L21,21 Z" id="path4_fill" fill="#DCEEFF" fill-rule="nonzero"></path>
            <path d="M22,35 C22,34.447754 22.447754,34 23,34 L24.80005,34 C25.35229,34 25.80005,34.447754 25.80005,35 L25.80005,37 C25.80005,37.55225 25.35229,38 24.80005,38 L23,38 C22.447754,38 22,37.55225 22,37 L22,35 Z M29.6001,35 C29.6001,34.447754 30.04785,34 30.6001,34 L32.4001,34 C32.9524,34 33.4001,34.447754 33.4001,35 L33.4001,37 C33.4001,37.55225 32.9524,38 32.4001,38 L30.6001,38 C30.04785,38 29.6001,37.55225 29.6001,37 L29.6001,35 Z M38.2,34 C37.6477,34 37.2,34.447754 37.2,35 L37.2,37 C37.2,37.55225 37.6477,38 38.2,38 L40,38 C40.5522,38 41,37.55225 41,37 L41,35 C41,34.447754 40.5522,34 40,34 L38.2,34 Z M22,43 C22,42.44775 22.447754,42 23,42 L24.80005,42 C25.35229,42 25.80005,42.44775 25.80005,43 L25.80005,45 C25.80005,45.5522 25.35229,46 24.80005,46 L23,46 C22.447754,46 22,45.5522 22,45 L22,43 Z M30.6001,42 C30.04785,42 29.6001,42.44775 29.6001,43 L29.6001,45 C29.6001,45.5522 30.04785,46 30.6001,46 L32.4001,46 C32.9524,46 33.4001,45.5522 33.4001,45 L33.4001,43 C33.4001,42.44775 32.9524,42 32.4001,42 L30.6001,42 Z M37.2,43 C37.2,42.44775 37.6477,42 38.2,42 L40,42 C40.5522,42 41,42.44775 41,43 L41,45 C41,45.5522 40.5522,46 40,46 L38.2,46 C37.6477,46 37.2,45.5522 37.2,45 L37.2,43 Z M23,50 C22.447754,50 22,50.4478 22,51 L22,53 C22,53.5522 22.447754,54 23,54 L24.80005,54 C25.35229,54 25.80005,53.5522 25.80005,53 L25.80005,51 C25.80005,50.4478 25.35229,50 24.80005,50 L23,50 Z M29.6001,51 C29.6001,50.4478 30.04785,50 30.6001,50 L32.4001,50 C32.9524,50 33.4001,50.4478 33.4001,51 L33.4001,53 C33.4001,53.5522 32.9524,54 32.4001,54 L30.6001,54 C30.04785,54 29.6001,53.5522 29.6001,53 L29.6001,51 Z M38.2,50 C37.6477,50 37.2,50.4478 37.2,51 L37.2,53 C37.2,53.5522 37.6477,54 38.2,54 L40,54 C40.5522,54 41,53.5522 41,53 L41,51 C41,50.4478 40.5522,50 40,50 L38.2,50 Z" id="path5_fill" fill="#4F69F6" fill-rule="nonzero"></path>
            <path d="M23,33 C21.895469,33 21,33.895469 21,35 L23,35 L23,33 Z M24.80005,33 L23,33 L23,35 L24.80005,35 L24.80005,33 Z M26.80005,35 C26.80005,33.895469 25.90458,33 24.80005,33 L24.80005,35 L26.80005,35 Z M26.80005,37 L26.80005,35 L24.80005,35 L24.80005,37 L26.80005,37 Z M24.80005,39 C25.90458,39 26.80005,38.10453 26.80005,37 L24.80005,37 L24.80005,39 Z M23,39 L24.80005,39 L24.80005,37 L23,37 L23,39 Z M21,37 C21,38.10453 21.895469,39 23,39 L23,37 L21,37 Z M21,35 L21,37 L23,37 L23,35 L21,35 Z M30.6001,33 C29.49557,33 28.6001,33.895469 28.6001,35 L30.6001,35 L30.6001,33 Z M32.4001,33 L30.6001,33 L30.6001,35 L32.4001,35 L32.4001,33 Z M34.4001,35 C34.4001,33.895469 33.5047,33 32.4001,33 L32.4001,35 L34.4001,35 Z M34.4001,37 L34.4001,35 L32.4001,35 L32.4001,37 L34.4001,37 Z M32.4001,39 C33.5047,39 34.4001,38.10453 34.4001,37 L32.4001,37 L32.4001,39 Z M30.6001,39 L32.4001,39 L32.4001,37 L30.6001,37 L30.6001,39 Z M28.6001,37 C28.6001,38.10453 29.49557,39 30.6001,39 L30.6001,37 L28.6001,37 Z M28.6001,35 L28.6001,37 L30.6001,37 L30.6001,35 L28.6001,35 Z M38.2,35 L38.2,33 C37.0954,33 36.2,33.895469 36.2,35 L38.2,35 Z M38.2,37 L38.2,35 L36.2,35 L36.2,37 L38.2,37 Z M38.2,37 L36.2,37 C36.2,38.10453 37.0954,39 38.2,39 L38.2,37 Z M40,37 L38.2,37 L38.2,39 L40,39 L40,37 Z M40,37 L40,39 C41.1045,39 42,38.10453 42,37 L40,37 Z M40,35 L40,37 L42,37 L42,35 L40,35 Z M40,35 L42,35 C42,33.895469 41.1045,33 40,33 L40,35 Z M38.2,35 L40,35 L40,33 L38.2,33 L38.2,35 Z M23,41 C21.895469,41 21,41.89547 21,43 L23,43 L23,41 Z M24.80005,41 L23,41 L23,43 L24.80005,43 L24.80005,41 Z M26.80005,43 C26.80005,41.89547 25.90458,41 24.80005,41 L24.80005,43 L26.80005,43 Z M26.80005,45 L26.80005,43 L24.80005,43 L24.80005,45 L26.80005,45 Z M24.80005,47 C25.90458,47 26.80005,46.1045 26.80005,45 L24.80005,45 L24.80005,47 Z M23,47 L24.80005,47 L24.80005,45 L23,45 L23,47 Z M21,45 C21,46.1045 21.895469,47 23,47 L23,45 L21,45 Z M21,43 L21,45 L23,45 L23,43 L21,43 Z M30.6001,43 L30.6001,41 C29.49557,41 28.6001,41.89547 28.6001,43 L30.6001,43 Z M30.6001,45 L30.6001,43 L28.6001,43 L28.6001,45 L30.6001,45 Z M30.6001,45 L28.6001,45 C28.6001,46.1045 29.49557,47 30.6001,47 L30.6001,45 Z M32.4001,45 L30.6001,45 L30.6001,47 L32.4001,47 L32.4001,45 Z M32.4001,45 L32.4001,47 C33.5047,47 34.4001,46.1045 34.4001,45 L32.4001,45 Z M32.4001,43 L32.4001,45 L34.4001,45 L34.4001,43 L32.4001,43 Z M32.4001,43 L34.4001,43 C34.4001,41.89547 33.5047,41 32.4001,41 L32.4001,43 Z M30.6001,43 L32.4001,43 L32.4001,41 L30.6001,41 L30.6001,43 Z M38.2,41 C37.0954,41 36.2,41.89547 36.2,43 L38.2,43 L38.2,41 Z M40,41 L38.2,41 L38.2,43 L40,43 L40,41 Z M42,43 C42,41.89547 41.1045,41 40,41 L40,43 L42,43 Z M42,45 L42,43 L40,43 L40,45 L42,45 Z M40,47 C41.1045,47 42,46.1045 42,45 L40,45 L40,47 Z M38.2,47 L40,47 L40,45 L38.2,45 L38.2,47 Z M36.2,45 C36.2,46.1045 37.0954,47 38.2,47 L38.2,45 L36.2,45 Z M36.2,43 L36.2,45 L38.2,45 L38.2,43 L36.2,43 Z M23,51 L23,49 C21.895469,49 21,49.8955 21,51 L23,51 Z M23,53 L23,51 L21,51 L21,53 L23,53 Z M23,53 L21,53 C21,54.1045 21.895469,55 23,55 L23,53 Z M24.80005,53 L23,53 L23,55 L24.80005,55 L24.80005,53 Z M24.80005,53 L24.80005,55 C25.90458,55 26.80005,54.1045 26.80005,53 L24.80005,53 Z M24.80005,51 L24.80005,53 L26.80005,53 L26.80005,51 L24.80005,51 Z M24.80005,51 L26.80005,51 C26.80005,49.8955 25.90458,49 24.80005,49 L24.80005,51 Z M23,51 L24.80005,51 L24.80005,49 L23,49 L23,51 Z M30.6001,49 C29.49557,49 28.6001,49.8955 28.6001,51 L30.6001,51 L30.6001,49 Z M32.4001,49 L30.6001,49 L30.6001,51 L32.4001,51 L32.4001,49 Z M34.4001,51 C34.4001,49.8955 33.5047,49 32.4001,49 L32.4001,51 L34.4001,51 Z M34.4001,53 L34.4001,51 L32.4001,51 L32.4001,53 L34.4001,53 Z M32.4001,55 C33.5047,55 34.4001,54.1045 34.4001,53 L32.4001,53 L32.4001,55 Z M30.6001,55 L32.4001,55 L32.4001,53 L30.6001,53 L30.6001,55 Z M28.6001,53 C28.6001,54.1045 29.49557,55 30.6001,55 L30.6001,53 L28.6001,53 Z M28.6001,51 L28.6001,53 L30.6001,53 L30.6001,51 L28.6001,51 Z M38.2,51 L38.2,49 C37.0954,49 36.2,49.8955 36.2,51 L38.2,51 Z M38.2,53 L38.2,51 L36.2,51 L36.2,53 L38.2,53 Z M38.2,53 L36.2,53 C36.2,54.1045 37.0954,55 38.2,55 L38.2,53 Z M40,53 L38.2,53 L38.2,55 L40,55 L40,53 Z M40,53 L40,55 C41.1045,55 42,54.1045 42,53 L40,53 Z M40,51 L40,53 L42,53 L42,51 L40,51 Z M40,51 L42,51 C42,49.8955 41.1045,49 40,49 L40,51 Z M38.2,51 L40,51 L40,49 L38.2,49 L38.2,51 Z" id="path6_stroke" fill="#4F69F6" fill-rule="nonzero"></path>
            <path d="M22,61 L41,61 L41,68 C41,69.65685 39.6569,71 38,71 L25,71 C23.34315,71 22,69.65685 22,68 L22,61 Z" id="path7_fill" fill="#FFFFFF" fill-rule="nonzero"></path>
            <path d="M22,61 L22,60 L21,60 L21,61 L22,61 Z M41,61 L42,61 L42,60 L41,60 L41,61 Z M22,62 L41,62 L41,60 L22,60 L22,62 Z M40,61 L40,68 L42,68 L42,61 L40,61 Z M38,70 L25,70 L25,72 L38,72 L38,70 Z M23,68 L23,61 L21,61 L21,68 L23,68 Z M25,70 C23.89543,70 23,69.10457 23,68 L21,68 C21,70.20914 22.790861,72 25,72 L25,70 Z M40,68 C40,69.10457 39.1046,70 38,70 L38,72 C40.2091,72 42,70.20914 42,68 L40,68 Z" id="path8_stroke" fill="#4F69F6" fill-rule="nonzero"></path>
            <polygon id="path9_stroke" fill="#4F69F6" fill-rule="nonzero" transform="translate(27.000000, 66.000000) rotate(-90.000000) translate(-27.000000, -66.000000) " points="22 67 32 67 32 65 22 65"></polygon>
            <g id="Group-26" transform="translate(34.000000, 35.000000)" fill-rule="nonzero">
                <path d="M26,13.5 C26,20.4035937 20.4035937,26 13.5,26 C6.5964375,26 1,20.4035937 1,13.5 C1,6.5964375 6.5964375,1 13.5,1 C20.4035937,1 26,6.5964375 26,13.5 Z" id="path10_fill" fill="#FFFFFF"></path>
                <path d="M25.4117647,13.5 C25.4117647,20.0787088 20.0787088,25.4117647 13.5,25.4117647 L13.5,27 C20.9558118,27 27,20.9558118 27,13.5 L25.4117647,13.5 Z M13.5,25.4117647 C6.921315,25.4117647 1.58823529,20.0787088 1.58823529,13.5 L0,13.5 C0,20.9558118 6.04415647,27 13.5,27 L13.5,25.4117647 Z M1.58823529,13.5 C1.58823529,6.921315 6.921315,1.58823529 13.5,1.58823529 L13.5,0 C6.04415647,0 0,6.04415647 0,13.5 L1.58823529,13.5 Z M13.5,1.58823529 C20.0787088,1.58823529 25.4117647,6.921315 25.4117647,13.5 L27,13.5 C27,6.04415647 20.9558118,0 13.5,0 L13.5,1.58823529 Z" id="path11_stroke" fill="#4F69F6"></path>
                <path d="M23,12.5 C23,18.2989556 18.2989556,23 12.5,23 C6.70101333,23 2,18.2989556 2,12.5 C2,6.70101333 6.70101333,2 12.5,2 C18.2989556,2 23,6.70101333 23,12.5 Z" id="path12_fill" fill="#DCEEFF"></path>
                <path d="M18.9686402,11.8343157 C19.2183202,10.0480205 17.9475201,9.08775528 16.2099201,8.4471548 L16.7736001,6.027391 L15.3973601,5.66031648 L14.8485601,8.01631004 C14.4867681,7.9198229 14.1151761,7.82879195 13.7459281,7.7385948 L14.2986161,5.36707538 L12.923168,5 L12.359112,7.41892195 C12.05964,7.34592719 11.765664,7.27377433 11.480304,7.197841 L11.481872,7.19028814 L9.58391196,6.68309719 L9.21780795,8.25627718 C9.21780795,8.25627718 10.238912,8.50672766 10.217352,8.52224623 C10.774744,8.67117433 10.87548,9.06593861 10.858624,9.37889242 L10.216568,12.1355315 C10.254984,12.1460148 10.30476,12.1611205 10.35964,12.1846129 C10.313776,12.1724457 10.264776,12.1590238 10.214216,12.1460148 L9.31423196,16.0076619 C9.24603195,16.1889143 9.07316795,16.4607524 8.68354394,16.3575381 C8.69726394,16.3789095 7.68321672,16.0903143 7.68321672,16.0903143 L7,17.7763095 L8.79094394,18.2541714 C9.12412795,18.3435429 9.45063996,18.4370429 9.77206397,18.5252 L9.20251995,20.9726333 L10.577184,21.3396714 L11.14124,18.9182238 C11.516752,19.0273476 11.881296,19.1279714 12.237992,19.2228476 L11.675896,21.6329619 L13.052128,22 L13.6216721,19.557181 C15.9684801,20.0324524 17.7331201,19.8407571 18.4759202,17.5690714 C19.0744802,15.7400334 18.4461602,14.6849 17.2114401,13.9968857 C18.1105602,13.7749953 18.7879202,13.1419476 18.9686402,11.8343157 Z M15.8241601,16.5534429 C15.3988801,18.3825619 12.521392,17.3937286 11.588488,17.1457714 L12.344216,13.9033857 C13.277128,14.1525572 16.2687201,14.645881 15.8241601,16.5534429 Z M16.2499201,11.8078848 C15.8618401,13.4716667 13.46684,12.6263619 12.689944,12.4191157 L13.37512,9.47831813 C14.1520161,9.68556432 16.6540001,10.0723548 16.2499201,11.8078848 Z" id="path13_fill" fill="#4F69F6"></path>
            </g>
        </g>
    </g>
</svg>