<?xml version="1.0" encoding="UTF-8"?>
<svg width="110px" height="109px" viewBox="0 0 110 109" version="1.1" xmlns="http://www.w3.org/2000/svg" xmlns:xlink="http://www.w3.org/1999/xlink">
    <!-- Generator: Sketch 48.2 (47327) - http://www.bohemiancoding.com/sketch -->
    <title>ic_multi-currency </title>
    <desc>Created with Sketch.</desc>
    <defs></defs>
    <g id="Business" stroke="none" stroke-width="1" fill="none" fill-rule="evenodd" transform="translate(-305.000000, -6830.000000)">
        <g id="ic_multi-currency-" transform="translate(285.000000, 6810.000000)">
            <rect id="Rectangle-9" x="0" y="0" width="150" height="150"></rect>
            <g id="payment-icon" transform="translate(20.000000, 20.000000)" fill-rule="nonzero">
                <g id="Vector-3" transform="translate(50.000000, 95.000000)" fill="#C9E9FF">
                    <g id="path0_fill-link" transform="translate(0.170000, 0.500000)">
                        <path d="M27.8266,2 L27.8266,12.5 C22.3264,4 10.3267,8 4.32666,7.5 C-0.47334,7.1 -0.673531,2.16667 0.826469,0 L23.8265,0 C26.6265,0 27.8266,0 27.8266,2 Z" id="path0_fill"></path>
                    </g>
                </g>
                <g id="Vector" transform="translate(36.000000, 93.000000)" fill="#4F69F6">
                    <g id="path1_stroke-link" transform="translate(0.630000, 0.680000)">
                        <path d="M0,6.79235 C0,7.34463 0.447715,7.79235 1,7.79235 C1.552285,7.79235 2,7.34463 2,6.79235 L0,6.79235 Z M41.1053,14.3224 C41.1053,14.8747 41.553,15.3224 42.1053,15.3224 C42.6575,15.3224 43.1053,14.8747 43.1053,14.3224 L41.1053,14.3224 Z M2,6.79235 L2,4 L0,4 L0,6.79235 L2,6.79235 Z M4,2 L39.1053,2 L39.1053,0 L4,0 L4,2 Z M41.1053,4 L41.1053,14.3224 L43.1053,14.3224 L43.1053,4 L41.1053,4 Z M39.1053,2 C40.2098,2 41.1053,2.89543 41.1053,4 L43.1053,4 C43.1053,1.790861 41.3144,0 39.1053,0 L39.1053,2 Z M2,4 C2,2.89543 2.89543,2 4,2 L4,0 C1.790861,0 0,1.790861 0,4 L2,4 Z" id="path1_stroke"></path>
                    </g>
                </g>
                <g id="Ellipse" transform="translate(25.000000, 0.000000)" fill="#DCEEFF">
                    <g id="path2_fill-link">
                        <path d="M43,21.5 C43,33.3741 33.3741,43 21.5,43 C9.62588,43 0,33.3741 0,21.5 C0,9.62588 9.62588,0 21.5,0 C33.3741,0 43,9.62588 43,21.5 Z" id="path2_fill"></path>
                    </g>
                </g>
                <g id="Ellipse" transform="translate(34.000000, 9.000000)" fill="#FFFFFF">
                    <g id="path3_fill-link">
                        <path d="M25,12.5 C25,19.4036 19.4036,25 12.5,25 C5.59644,25 0,19.4036 0,12.5 C0,5.59644 5.59644,0 12.5,0 C19.4036,0 25,5.59644 25,12.5 Z" id="path3_fill"></path>
                    </g>
                </g>
                <g id="Union" transform="translate(0.000000, 68.000000)" fill="#DCEEFF">
                    <g id="path4_fill-link" transform="translate(0.000000, 0.030000)">
                        <path d="M23.158,34.7539 C32.7502,34.7539 40.5264,26.9741 40.5264,17.377 C40.5264,7.77979 32.7502,0 23.158,0 C13.5657,0 5.78955,7.77979 5.78955,17.377 C5.78955,26.9741 13.5657,34.7539 23.158,34.7539 Z M2.31567,13.9019 C2.31567,14.5415 1.79736,15.0601 1.15796,15.0601 C0.518311,15.0601 0,14.5415 0,13.9019 C0,13.2617 0.518311,12.7432 1.15796,12.7432 C1.79736,12.7432 2.31567,13.2617 2.31567,13.9019 Z M23.1509,37.6504 C11.8337,37.6504 2.62305,28.626 2.31567,17.3774 C2.31567,16.7373 1.79736,16.2188 1.15796,16.2188 C0.518311,16.2188 0,16.7373 0,17.3774 L0.00170898,17.439 C0.34082,29.938 10.5754,39.9673 23.1509,39.9673 C23.3108,39.9673 23.4705,39.9658 23.6299,39.9624 C23.665,39.9658 23.7007,39.9673 23.7368,39.9673 C24.3762,39.9673 24.8945,39.4487 24.8945,38.8091 C24.8945,38.1689 24.3762,37.6504 23.7368,37.6504 L23.7368,37.6421 C23.5422,37.6475 23.3469,37.6504 23.1509,37.6504 Z" id="path4_fill"></path>
                    </g>
                </g>
                <g id="Ellipse-3.1" transform="translate(42.000000, 99.000000)" fill="#DCEEFF">
                    <g id="path5_fill-link" transform="translate(0.840000, 0.310000)">
                        <path d="M4.63158,2.31694 C4.63158,3.59655 3.59476,4.63388 2.31579,4.63388 C1.03681,4.63388 0,3.59655 0,2.31694 C0,1.03733 1.03681,0 2.31579,0 C3.59476,0 4.63158,1.03733 4.63158,2.31694 Z" id="path5_fill"></path>
                    </g>
                </g>
                <g id="$" transform="translate(18.000000, 77.000000)" fill="#4F69F6">
                    <g id="path6_fill-link">
                        <path d="M10.224,11.544 C10.224,9.408 8.64,8.16 5.88,7.824 L5.88,3.792 C7.056,3.912 8.016,4.296 8.904,4.944 C9.144,4.656 9.552,4.152 9.864,3.48 C9.048,2.808 7.536,2.16 5.88,2.04 L5.88,0.072 C5.64,0.024 5.376,0 5.136,0 C4.872,0 4.632,0.024 4.368,0.072 L4.368,2.064 C1.68,2.376 0.168,4.008 0.168,6.024 C0.168,8.28 1.848,9.48 4.368,9.744 L4.368,14.136 C2.856,13.944 1.704,13.248 1.176,12.744 C0.672,13.032 0.216,13.464 0,14.16 C0.6,14.76 2.184,15.696 4.368,15.888 L4.368,17.952 C4.632,18.024 4.872,18.048 5.136,18.048 C5.376,18.048 5.64,18.024 5.88,17.952 L5.88,15.888 C8.352,15.648 10.224,14.28 10.224,11.544 Z M1.992,5.688 C1.992,4.656 2.784,3.96 4.368,3.792 L4.368,7.656 C2.352,7.32 1.992,6.6 1.992,5.688 Z M5.88,14.136 L5.88,9.84 C8.04,10.104 8.304,11.04 8.304,12 C8.304,13.152 7.416,13.944 5.88,14.136 Z" id="path6_fill"></path>
                    </g>
                </g>
                <g id="Union" transform="translate(69.000000, 20.000000)" fill="#DCEEFF">
                    <g id="path7_fill-link" transform="translate(20.500000, 20.500000) rotate(-180.000000) translate(-20.500000, -20.500000) translate(0.000000, 0.500000)">
                        <path d="M23.7368,39.9673 C24.3762,39.9673 24.8945,39.4487 24.8945,38.8091 C24.8945,38.1689 24.3762,37.6504 23.7368,37.6504 L23.7368,37.6421 C23.5422,37.6475 23.3469,37.6504 23.1509,37.6504 C11.834,37.6504 2.62329,28.626 2.31641,17.3774 C2.31543,16.7373 1.79712,16.2188 1.15771,16.2188 C0.518066,16.2188 -0.000244054,16.7373 8.6213e-08,17.3774 L0.00170907,17.4468 C0.345215,29.9429 10.5779,39.9673 23.1509,39.9673 C23.3108,39.9673 23.4702,39.9658 23.6296,39.9624 C23.6648,39.9658 23.7007,39.9673 23.7368,39.9673 Z M2.31567,13.9019 C2.31567,14.5415 1.79736,15.0601 1.15796,15.0601 C0.518311,15.0601 8.6213e-08,14.5415 8.6213e-08,13.9019 C8.6213e-08,13.2617 0.518311,12.7432 1.15796,12.7432 C1.79736,12.7432 2.31567,13.2617 2.31567,13.9019 Z M23.158,34.7539 C32.7502,34.7539 40.5264,26.9741 40.5264,17.377 C40.5264,7.77979 32.7502,0 23.158,0 C13.5657,0 5.78955,7.77979 5.78955,17.377 C5.78955,26.9741 13.5657,34.7539 23.158,34.7539 Z" id="path7_fill"></path>
                    </g>
                </g>
                <g id="Ƀ" transform="translate(79.000000, 35.000000)" fill="#4F69F6">
                    <g id="path8_fill-link">
                        <path d="M11.52,7.392 C12.72,6.768 13.464,5.712 13.464,4.104 C13.464,1.44 11.64,0 7.872,0 C5.952,0 3.84,0.192 2.76,0.432 L2.76,10.56 L0.12,10.56 C0.12,10.56 0,10.944 0,11.328 C0,11.688 0.12,12.072 0.12,12.072 L2.76,12.072 L2.76,15.552 C3.84,15.72 5.856,15.84 7.968,15.84 C11.976,15.84 14.184,14.088 14.184,11.112 C14.184,9.12 13.2,7.944 11.52,7.392 Z M4.728,1.824 C5.568,1.728 7.104,1.704 7.968,1.704 C10.344,1.704 11.568,2.544 11.568,4.104 C11.568,5.736 10.68,6.744 8.256,6.744 L4.728,6.744 L4.728,1.824 Z M7.848,14.088 C6.744,14.088 5.304,14.04 4.728,13.944 L4.728,12.072 L7.2,12.072 C7.2,12.072 7.32,11.688 7.32,11.328 C7.32,10.944 7.2,10.56 7.2,10.56 L4.728,10.56 L4.728,8.496 L8.472,8.496 C10.848,8.496 12.264,9.336 12.264,11.184 C12.264,13.296 10.968,14.088 7.848,14.088 Z" id="path8_fill"></path>
                    </g>
                </g>
                <g id="Vector-2" transform="translate(23.000000, 16.000000)">
                    <g id="path9_fill-link" transform="translate(1.890000, 1.000000)" fill="#FFFFFF">
                        <path d="M16.7895,77.6777 C13.3158,73.2368 6.36842,62.0383 4.05263,52.7705 C2.51649,46.6229 1.48983,42.7692 0.803688,40.3639 C0.429239,39.0513 1.39396,37.4986 2.75588,37.4071 C4.38294,37.2978 6.06923,37.691 7.52632,40.6066 C9.37895,43.3869 11.7719,47.9436 12.7368,49.8744 C13.5088,51.0329 15.0526,52.0755 15.0526,46.9782 C15.0526,41.8877 16.1024,16.4247 16.1052,4.04923 C16.1052,4.0154 16.1058,3.98448 16.1083,3.95074 C16.1878,2.8737 17.1669,0 21.1052,0 C24.1052,0 26.0526,1.7979 26.0526,3.5356 C26.0526,4.5144 25.8613,13.9737 25.6807,22.6537 L25.6808,22.6504 C27.8036,21.878 33.5789,21.4919 34.7368,24.9673 C35.3586,27.4558 35.4065,29.7354 35.3708,31.6661 C35.5243,28.5752 36.0976,24.7404 38.2105,24.3881 C42.268,23.3732 44.9926,25.4701 44.8271,31.8472 C44.9842,30.1802 45.1579,28.4427 45.1579,28.4427 C47.8596,28.0566 54.4211,26.705 54.4211,34.2351 C54.4211,40.0274 56.0856,53.6208 54.4211,63.1968 C53.6491,67.6376 51.2947,77.2143 50.3684,77.6777 C49.4421,78.141 27.5965,77.6777 16.7895,77.6777 Z" id="path9_fill"></path>
                    </g>
                    <g id="path10_stroke-link" transform="translate(0.890000, 0.000000)" fill="#4F69F6">
                        <path d="M17.7895,78.6777 L17.0018,79.2938 L17.3021,79.6777 L17.7895,79.6777 L17.7895,78.6777 Z M5.05263,53.7705 L6.0228,53.5281 L5.05263,53.7705 Z M1.803688,41.3639 L2.76533,41.0896 L2.76532,41.0896 L1.803688,41.3639 Z M3.75588,38.4071 L3.8229,39.4049 L3.75588,38.4071 Z M8.52632,41.6066 L7.6318,42.0536 L7.65963,42.1093 L7.69414,42.1611 L8.52632,41.6066 Z M13.7368,50.8744 L12.8423,51.3214 L12.8701,51.3771 L12.9047,51.4289 L13.7368,50.8744 Z M17.1052,5.04923 L16.1052,5.049 L17.1052,5.04923 Z M17.1083,4.95074 L18.1056,5.02432 L18.1056,5.02431 L17.1083,4.95074 Z M26.4737,33.4974 L25.4739,33.4763 L27.4735,33.5186 L26.4737,33.4974 Z M26.6808,23.6504 L26.3389,22.7106 L25.6955,22.9447 L25.681,23.6292 L26.6808,23.6504 Z M35.7368,25.9673 L36.707,25.7249 L36.6977,25.6876 L36.6856,25.6512 L35.7368,25.9673 Z M39.2105,25.3881 L39.375,26.3744 L39.4144,26.3679 L39.4532,26.3582 L39.2105,25.3881 Z M45.5789,35.8143 L44.5789,35.8143 L46.5702,35.9464 L45.5789,35.8143 Z M46.1579,29.4427 L46.0164,28.4528 L45.2408,28.5636 L45.1629,29.3433 L46.1579,29.4427 Z M55.4211,64.1968 L56.4063,64.3681 L55.4211,64.1968 Z M18.5771,78.0615 C15.1482,73.678 8.29137,62.6069 6.0228,53.5281 L4.08246,54.013 C6.44547,63.4697 13.4834,74.7957 17.0018,79.2938 L18.5771,78.0615 Z M6.0228,53.5281 C4.48475,47.373 3.45384,43.5033 2.76533,41.0896 L0.84205,41.6382 C1.52583,44.035 2.54823,47.8729 4.08246,54.013 L6.0228,53.5281 Z M3.8229,39.4049 C4.56021,39.3524 5.10546,39.3798 5.71861,39.7464 C6.29803,40.0688 6.96259,40.7146 7.6318,42.0536 L9.42083,41.1596 C8.63296,39.5831 7.72583,38.5745 6.69106,37.9987 C5.69004,37.4671 4.57861,37.3525 3.68886,37.4094 L3.8229,39.4049 Z M7.69414,42.1611 C9.51902,44.8974 11.882,49.3996 12.8423,51.3214 L14.6314,50.4274 C13.6619,48.4876 11.2389,43.8765 9.35849,41.0521 L7.69414,42.1611 Z M12.9047,51.4289 C13.1322,51.7671 13.4952,52.1834 13.8429,52.441 C14.2129,52.7054 14.8869,53.0243 15.6171,52.6737 C16.2739,52.3583 16.5923,51.6659 16.7669,50.9965 C16.9397,50.3237 17.0512,49.3065 17.0526,47.9782 L15.0526,47.9782 C15.0541,49.1986 14.9726,49.9625 14.8317,50.4916 C14.6928,51.0242 14.577,50.9545 14.7513,50.8708 C14.9991,50.7518 15.1423,50.9114 15.0058,50.8138 C14.8469,50.7094 14.7275,50.5609 14.569,50.3199 L12.9047,51.4289 Z M17.0526,47.9782 C17.0524,42.9083 18.1022,17.4454 18.1052,5.04945 L16.1052,5.049 C16.1026,17.4039 15.0528,42.8671 15.0526,47.9782 L17.0526,47.9782 Z M18.1056,5.02431 C18.1319,4.6677 18.3293,3.89572 18.912,3.23028 C19.4604,2.60408 20.4107,2 22.1052,2 L22.1052,0 C19.8614,0 18.353,0.83277 17.4074,1.912682 C16.4961,2.95335 16.1642,4.15674 16.111,4.87717 L18.1056,5.02431 Z M22.1052,2 C24.8069,2 26.0526,3.57381 26.0526,4.5356 L28.0526,4.5356 C28.0526,2.02198 25.4035,0 22.1052,0 L22.1052,2 Z M26.0526,4.5356 C26.0527,5.50429 25.8615,14.9532 25.6809,23.6329 L27.6805,23.6745 C27.8611,14.9942 28.0526,5.52451 28.0526,4.5356 L26.0526,4.5356 Z M25.6809,23.6329 C25.605,27.2808 25.531,30.7909 25.4739,33.4761 L27.4735,33.5186 C27.5306,30.8332 27.6046,27.3226 27.6805,23.6745 L25.6809,23.6329 Z M27.4735,33.5184 L27.6805,23.6747 L25.6809,23.6327 L25.4739,33.4763 L27.4735,33.5184 Z M27.6805,23.6749 L27.6805,23.6715 L25.681,23.6292 L25.6809,23.6325 L27.6805,23.6749 Z M27.0227,24.5901 C27.9276,24.2609 29.7401,23.9861 31.4416,24.2076 C33.1783,24.4336 34.3961,25.1067 34.7881,26.2834 L36.6856,25.6512 C35.9197,23.3525 33.6709,22.4809 31.6997,22.2243 C29.6933,21.9631 27.5568,22.2675 26.3389,22.7106 L27.0227,24.5901 Z M34.7667,26.2097 C35.3675,28.5883 35.4065,30.7367 35.371,32.6476 L37.3706,32.6846 C37.4065,30.7342 37.3498,28.3232 36.707,25.7249 L34.7667,26.2097 Z M35.371,32.6476 C35.3538,33.5806 35.316,34.4516 35.3158,35.2351 L37.3158,35.2351 C37.3156,34.4952 37.3528,33.6426 37.3706,32.6846 L35.371,32.6476 Z M37.3158,35.2351 C37.3158,34.5446 37.322,33.669 37.3696,32.7157 L35.3721,32.6165 C35.3228,33.612 35.3158,34.5372 35.3158,35.2351 L37.3158,35.2351 Z M37.3696,32.7157 C37.4446,31.1976 37.6091,29.5891 38.0118,28.2937 C38.4299,26.9323 38.9436,26.4464 39.375,26.3744 L39.046,24.4017 C37.3646,24.6821 36.5351,26.2897 36.1,27.7065 C35.6494,29.1893 35.4505,31.0436 35.3721,32.6165 L37.3696,32.7157 Z M39.4532,26.3582 C41.2844,25.9002 42.5585,26.1967 43.3873,27.0447 C44.2722,27.9499 44.9077,29.73 44.8275,32.8212 L46.8268,32.8731 C46.912,29.5873 46.268,27.1304 44.8175,25.6466 C43.3111,24.1055 41.1942,23.8611 38.9679,24.4179 L39.4532,26.3582 Z M44.8275,32.8212 C44.8052,33.6954 44.7282,34.6303 44.5877,35.6822 L46.5702,35.9464 C46.7167,34.8444 46.8023,33.8034 46.8268,32.8731 L44.8275,32.8212 Z M46.5789,35.8143 C46.5793,35.8518 46.5843,35.6804 46.5969,35.5053 C46.6097,35.3269 46.628,35.0999 46.6508,34.8338 C46.6963,34.3 46.758,33.6281 46.8227,32.941 L44.8315,32.7533 C44.7056,34.0899 44.5789,35.4907 44.5789,35.8143 L46.5789,35.8143 Z M46.8227,32.941 C46.9011,32.109 46.9836,31.2597 47.0466,30.6175 C47.0781,30.2965 47.1047,30.0277 47.1234,29.8389 C47.1328,29.7446 47.1402,29.6704 47.1452,29.6197 C47.1477,29.5944 47.1497,29.575 47.151,29.5619 C47.1516,29.5554 47.1521,29.5504 47.1524,29.5471 C47.1526,29.5455 47.1527,29.5442 47.1528,29.5434 C47.1529,29.543 47.1529,29.5427 47.1529,29.5425 C47.1529,29.5424 47.1529,29.5423 47.1529,29.5422 C47.1529,29.5422 47.1529,29.5422 47.1529,29.5422 C47.1529,29.5422 47.1529,29.5422 46.1579,29.4427 C45.1629,29.3433 45.1628,29.3433 45.1628,29.3433 C45.1628,29.3433 45.1628,29.3433 45.1628,29.3433 C45.1628,29.3434 45.1628,29.3435 45.1628,29.3436 C45.1628,29.3438 45.1628,29.3441 45.1627,29.3446 C45.1626,29.3454 45.1625,29.3467 45.1623,29.3484 C45.162,29.3517 45.1615,29.3568 45.1608,29.3633 C45.1595,29.3765 45.1576,29.3961 45.155,29.4215 C45.15,29.4724 45.1426,29.5469 45.1332,29.6416 C45.1144,29.8307 45.0878,30.1005 45.0562,30.4222 C44.9931,31.0654 44.9102,31.9184 44.8315,32.7533 L46.8227,32.941 Z M46.2994,30.4326 C47.7402,30.2267 49.8055,29.8485 51.5324,30.3331 C52.4025,30.569 53.0222,30.9115 53.5381,31.6777 C54.0419,32.3876 54.4211,33.4933 54.4211,35.2351 L56.4211,35.2351 C56.4211,33.2118 55.98,31.6627 55.1691,30.5202 C54.3703,29.4341 53.1808,28.7267 52.0728,28.4075 C49.8436,27.7819 47.2774,28.2725 46.0164,28.4528 L46.2994,30.4326 Z M54.4211,35.2351 C54.422,38.174 54.8391,43.04 55.046,48.3361 C55.2535,53.636 55.257,59.3228 54.4358,64.0256 L56.4063,64.3681 C57.2496,59.4947 57.2531,53.5969 57.0445,48.258 C56.8352,42.9153 56.4201,38.0884 56.4211,35.2351 L54.4211,35.2351 Z M54.4358,64.0256 C54.0542,66.2227 53.2821,69.684 52.4863,72.6714 C52.0892,74.1627 51.6952,75.5047 51.3405,76.5123 C51.1659,77.0093 51.0173,77.3841 50.8791,77.664 C50.8156,77.7945 50.7823,77.8546 50.7414,77.9104 C50.6959,77.9748 50.75,77.8689 50.921,77.7833 L51.8158,79.572 C52.1026,79.4285 52.2837,79.1935 52.3748,79.0645 C52.4705,78.9269 52.5836,78.7294 52.6746,78.5451 C52.8455,78.1952 53.0388,77.7111 53.2272,77.1758 C53.5987,76.1186 54.0151,74.702 54.4189,73.1861 C55.2249,70.1591 56.016,66.6117 56.4063,64.3681 L54.4358,64.0256 Z M50.921,77.7833 C51.0283,77.7297 51.1003,77.7239 51.0396,77.735 C50.9951,77.7436 50.9462,77.75 50.8546,77.7593 C50.6599,77.7796 50.4015,77.7964 50.0581,77.8117 C49.3632,77.8429 48.4094,77.8624 47.2414,77.8732 C44.9012,77.8949 41.7547,77.8804 38.2926,77.8514 C31.3674,77.7936 23.2001,77.6777 17.7895,77.6777 L17.7895,79.6777 C23.1859,79.6776 31.3449,79.7934 38.2758,79.8514 C41.7418,79.8803 44.9058,79.8949 47.2599,79.8731 C48.4391,79.8622 49.4284,79.8418 50.1476,79.8097 C50.5114,79.7933 50.8279,79.7725 51.0602,79.7487 C51.1821,79.736 51.3098,79.7187 51.4029,79.7018 C51.4799,79.6876 51.6507,79.6546 51.8158,79.572 L50.921,77.7833 Z M18.1052,5.04945 C18.1052,5.038 18.1053,5.03188 18.1054,5.02831 C18.1055,5.02665 18.1055,5.02564 18.1055,5.02514 C18.1056,5.02464 18.1056,5.02441 18.1056,5.02432 L16.111,4.87717 C16.1069,4.93818 16.1053,5.00579 16.1052,5.049 L18.1052,5.04945 Z M2.76532,41.0896 C2.66817,40.749 2.73724,40.3279 2.9683,39.9707 C3.19798,39.6156 3.51823,39.4253 3.8229,39.4049 L3.68886,37.4094 C2.63161,37.4804 1.788545,38.1122 1.288995,38.8844 C0.790828,39.6546 0.564758,40.6662 0.842051,41.6382 L2.76532,41.0896 Z" id="path10_stroke"></path>
                    </g>
                </g>
            </g>
        </g>
    </g>
</svg>