<?xml version="1.0" encoding="UTF-8"?>
<svg width="444px" height="405px" viewBox="0 0 444 405" version="1.1" xmlns="http://www.w3.org/2000/svg" xmlns:xlink="http://www.w3.org/1999/xlink">
    <!-- Generator: Sketch 48.2 (47327) - http://www.bohemiancoding.com/sketch -->
    <title>ic_Security</title>
    <desc>Created with Sketch.</desc>
    <defs></defs>
    <g id="Business" stroke="none" stroke-width="1" fill="none" fill-rule="evenodd" transform="translate(-257.000000, -5944.000000)">
        <g id="ic_Security" transform="translate(258.000000, 5945.000000)" fill-rule="nonzero">
            <path d="M399,202.5 C399,312.129 310.129,401 200.5,401 C90.8715,401 2,312.129 2,202.5 C2,92.8715 90.8715,4 200.5,4 C310.129,4 399,92.8715 399,202.5 Z" id="path0_fill" fill="#FFFFFF"></path>
            <path d="M204.5,17 C204.5,19.76123 202.261,22 199.5,22 C196.739,22 194.5,19.76123 194.5,17 C194.5,14.23877 196.739,12 199.5,12 C202.261,12 204.5,14.23877 204.5,17 Z M204.5,388 C204.5,390.761 202.261,393 199.5,393 C196.739,393 194.5,390.761 194.5,388 C194.5,385.239 196.739,383 199.5,383 C202.261,383 204.5,385.239 204.5,388 Z M14,197.5 C16.76147,197.5 19,199.739 19,202.5 C19,205.261 16.76147,207.5 14,207.5 C11.23853,207.5 9,205.261 9,202.5 C9,199.739 11.23853,197.5 14,197.5 Z M385,197.5 C387.761,197.5 390,199.739 390,202.5 C390,205.261 387.761,207.5 385,207.5 C382.239,207.5 380,205.261 380,202.5 C380,199.739 382.239,197.5 385,197.5 Z M363.089,126.217 C364.256,128.72 367.23,129.803 369.733,128.636 C372.236,127.469 373.319,124.494 372.152,121.991 C370.985,119.488 368.01,118.406 365.507,119.573 C363.004,120.74 361.922,123.714 363.089,126.217 Z M26.8484,283.008 C28.0154,285.511 30.9902,286.594 33.4929,285.427 C35.9956,284.26 37.0784,281.285 35.9114,278.782 C34.7444,276.279 31.7695,275.197 29.2668,276.364 C26.7642,277.531 25.6814,280.505 26.8484,283.008 Z M33.4934,119.573 C35.9961,120.74 37.0789,123.715 35.9119,126.218 C34.7446,128.721 31.7698,129.804 29.2671,128.637 C26.7644,127.47 25.6816,124.495 26.8486,121.992 C28.0156,119.489 30.9907,118.406 33.4934,119.573 Z M369.734,276.364 C372.236,277.531 373.319,280.506 372.152,283.009 C370.985,285.512 368.01,286.595 365.507,285.428 C363.005,284.261 361.922,281.286 363.089,278.783 C364.256,276.28 367.231,275.197 369.734,276.364 Z M71.8672,74.8672 C73.8198,72.9146 73.8198,69.7485 71.8672,67.7959 C69.9146,65.8433 66.7485,65.8433 64.7961,67.7959 C62.8435,69.7485 62.8435,72.9146 64.7961,74.8672 C66.7485,76.8198 69.9146,76.8198 71.8672,74.8672 Z M334.204,337.204 C336.156,335.251 336.156,332.085 334.204,330.132 C332.251,328.18 329.085,328.18 327.133,330.132 C325.18,332.085 325.18,335.251 327.133,337.204 C329.085,339.156 332.251,339.156 334.204,337.204 Z M334.204,74.8667 C332.251,76.8193 329.085,76.8193 327.133,74.8667 C325.18,72.9141 325.18,69.7485 327.132,67.7959 C329.085,65.8433 332.251,65.8433 334.204,67.7959 C336.156,69.7485 336.156,72.9141 334.204,74.8667 Z M71.8672,337.203 C69.9146,339.156 66.7485,339.156 64.7959,337.203 C62.8435,335.25 62.8433,332.085 64.7959,330.132 C66.7485,328.18 69.9146,328.18 71.8672,330.132 C73.8196,332.085 73.8193,335.25 71.8672,337.203 Z M123.218,38.9111 C125.72,37.7437 126.803,34.769 125.636,32.2661 C124.469,29.7637 121.494,28.6807 118.991,29.8477 C116.489,31.0146 115.406,33.9897 116.573,36.4927 C117.74,38.9951 120.715,40.0781 123.218,38.9111 Z M280.009,375.151 C282.512,373.984 283.594,371.009 282.427,368.506 C281.26,366.004 278.285,364.921 275.783,366.088 C273.28,367.255 272.197,370.23 273.364,372.733 C274.531,375.235 277.506,376.318 280.009,375.151 Z M282.427,36.4932 C281.26,38.9956 278.285,40.0786 275.783,38.9116 C273.28,37.7446 272.197,34.7695 273.364,32.2671 C274.531,29.7642 277.506,28.6816 280.009,29.8486 C282.511,31.0156 283.594,33.9902 282.427,36.4932 Z M125.636,372.733 C124.469,375.236 121.494,376.319 118.991,375.152 C116.489,373.985 115.406,371.01 116.573,368.507 C117.74,366.004 120.715,364.922 123.218,366.089 C125.72,367.256 126.803,370.23 125.636,372.733 Z" id="path2_fill" fill="#DCEEFF"></path>
            <path d="M375,202.5 C375,298.874 296.874,377 200.5,377 C104.1263,377 26,298.874 26,202.5 C26,106.1263 104.1263,28 200.5,28 C296.874,28 375,106.1263 375,202.5 Z" id="path3_fill" fill="#FFFFFF"></path>
            <path d="M353,201.5 C353,285.171 285.171,353 201.5,353 C117.8289,353 50,285.171 50,201.5 C50,117.8289 117.8289,50 201.5,50 C285.171,50 353,117.8289 353,201.5 Z" id="path5_fill" fill="#DCEEFF"></path>
            <path d="M403,201.5 C403,312.785191 312.785191,403 201.5,403 C90.2146756,403 0,312.785191 0,201.5 C0,90.2146756 90.2146756,0 201.5,0 C312.785191,0 403,90.2146756 403,201.5 Z" id="path5_fill" stroke="#4F69F6" stroke-width="2"></path>
            <path d="M373,201.5 C373,296.216677 296.216677,373 201.5,373 C106.78321,373 30,296.216677 30,201.5 C30,106.78321 106.78321,30 201.5,30 C296.216677,30 373,106.78321 373,201.5 Z" id="path5_fill" stroke="#4F69F6" stroke-width="2"></path>
            <path d="M131,170 C131,166.68629 133.273015,164 136.076923,164 L268.923077,164 C271.727231,164 274,166.68629 274,170 L274,226 C274,229.3137 271.727231,232 268.923077,232 L136.076923,232 C133.273015,232 131,229.3137 131,226 L131,170 Z" id="path6_fill" fill="#FFFFFF"></path>
            <path d="M135.935673,165 L269.064327,165 L269.064327,163 L135.935673,163 L135.935673,165 Z M273.304094,170 L273.304094,226 L275,226 L275,170 L273.304094,170 Z M269.064327,231 L135.935673,231 L135.935673,233 L269.064327,233 L269.064327,231 Z M131.695906,226 L131.695906,170 L130,170 L130,226 L131.695906,226 Z M135.935673,231 C133.594118,231 131.695906,228.7614 131.695906,226 L130,226 C130,229.866 132.657494,233 135.935673,233 L135.935673,231 Z M273.304094,226 C273.304094,228.7614 271.405526,231 269.064327,231 L269.064327,233 C272.342515,233 275,229.866 275,226 L273.304094,226 Z M269.064327,165 C271.405526,165 273.304094,167.23858 273.304094,170 L275,170 C275,166.13401 272.342515,163 269.064327,163 L269.064327,165 Z M135.935673,163 C132.657494,163 130,166.13401 130,170 L131.695906,170 C131.695906,167.23858 133.594118,165 135.935673,165 L135.935673,163 Z" id="path7_stroke" fill="#4F69F6"></path>
            <path d="M264,179 C266.761,179 269,176.76123 269,174 C269,171.23877 266.761,169 264,169 C261.239,169 259,171.23877 259,174 C259,176.76123 261.239,179 264,179 Z M142,180 C144.76147,180 147,177.76123 147,175 C147,172.23877 144.76147,170 142,170 C139.23853,170 137,172.23877 137,175 C137,177.76123 139.23853,180 142,180 Z M142,227 C144.76147,227 147,224.7612 147,222 C147,219.2388 144.76147,217 142,217 C139.23853,217 137,219.2388 137,222 C137,224.7612 139.23853,227 142,227 Z M269,222 C269,224.7612 266.761,227 264,227 C261.239,227 259,224.7612 259,222 C259,219.2388 261.239,217 264,217 C266.761,217 269,219.2388 269,222 Z" id="path8_fill" fill="#DCEEFF"></path>
            <path d="M296,108.003863 L378.4648,108.003863 C378.6482,107.998658 378.8267,107.998767 379,108.003863 L378.4648,108.003863 C372.6508,108.168908 362,113.67658 362,135.0039 L362,265.504 C362,273.671 365.4,290.004 379,290.004 L287,290.004 C295,290.004 311,285.104 311,265.504 L311,135.0039 C311.6667,126.0039 309.6,108.003863 296,108.003863 Z" id="path9_fill" fill="#FFFFFF"></path>
            <path d="M379,108.009318 L379,109.014749 L379.0294,107.004318 L379,108.009318 Z M311,135.156091 L310.0027,135.081789 L310,135.11889 L310,135.156091 L311,135.156091 Z M296,109.014749 L378.4648,109.014749 L378.4648,107.003883 L296,107.003883 L296,109.014749 Z M378.4648,109.014749 L379,109.014749 L379,107.003883 L378.4648,107.003883 L378.4648,109.014749 Z M379.0294,107.004318 C378.8417,106.998873 378.6343,106.998742 378.4364,107.004288 L378.4931,109.014347 C378.662,109.009422 378.8117,109.009515 378.9706,109.014317 L379.0294,107.004318 Z M378.4364,107.004288 C375.2487,107.095272 370.8611,108.648304 367.2842,112.959693 C363.7047,117.274395 361,124.270954 361,135.156091 L363,135.156091 C363,124.598021 365.6207,118.10412 368.8201,114.247745 C372.0222,110.388042 375.8669,109.089302 378.4931,109.014347 L378.4364,107.004288 Z M361,135.156091 L361,266.365416 L363,266.365416 L363,135.156091 L361,135.156091 Z M361,266.365416 C361.0024,270.539981 361.8948,276.926502 364.5054,282.210061 C367.1607,287.553946 371.6964,292.004 379,292.004 L379,289.993131 C372.7036,289.993131 368.7393,286.2318 366.2946,281.311202 C363.8052,276.331284 362.9976,270.401231 363,266.365416 L361,266.365416 Z M379,289.993131 L287,289.993131 L287,292.004 L379,292.004 L379,289.993131 Z M287,292.004 C291.16425,292.004 297.385,290.730114 302.5922,286.882316 C307.8493,282.997316 312,276.537398 312,266.365416 L310,266.365416 C310,275.899953 306.1507,281.75661 301.4078,285.261555 C296.61499,288.803701 290.83575,289.993131 287,289.993131 L287,292.004 Z M312,266.365416 L312,135.156091 L310,135.156091 L310,266.365416 L312,266.365416 Z M311.9973,135.230292 C312.3333,130.642695 311.962,123.638133 309.785,117.832804 C307.5745,111.972688 303.3834,107.003883 296,107.003883 L296,109.014749 C302.2166,109.014749 305.8588,113.094864 307.915,118.545908 C310.0047,124.051668 310.3334,130.620475 310.0027,135.081789 L311.9973,135.230292 Z" id="path10_stroke" fill="#4F69F6"></path>
            <path d="M402,18 C402,13.58172 405.58172,10 410,10 L434,10 C438.4183,10 442,13.58172 442,18 L442,377 C442,381.418 438.4183,385 434,385 L410,385 C405.58172,385 402,381.418 402,377 L402,18 Z" id="path11_fill" fill="#FFFFFF"></path>
            <path d="M410,11 L434,11 L434,9 L410,9 L410,11 Z M441,18 L441,377 L443,377 L443,18 L441,18 Z M434,384 L410,384 L410,386 L434,386 L434,384 Z M403,377 L403,18 L401,18 L401,377 L403,377 Z M410,384 C406.13401,384 403,380.866 403,377 L401,377 C401,381.971 405.02944,386 410,386 L410,384 Z M441,377 C441,380.866 437.866,384 434,384 L434,386 C438.9706,386 443,381.971 443,377 L441,377 Z M434,11 C437.866,11 441,14.13401 441,18 L443,18 C443,13.02944 438.9706,9 434,9 L434,11 Z M410,9 C405.02944,9 401,13.02944 401,18 L403,18 C403,14.13401 406.13401,11 410,11 L410,9 Z" id="path12_stroke" fill="#4F69F6"></path>
            <path d="M196.3813,146 C196.3813,143.79102 198.1721,142 200.3813,142 L202.6189,142 C204.8279,142 206.6189,143.79102 206.6189,146 L206.6189,164.1875 C211.6997,164.9971 216.4304,166.8438 220.5837,169.5015 L234.1863,156.0151 C235.7551,154.4595 238.2986,154.4595 239.8674,156.0151 L242.6343,158.7583 C244.203,160.3135 244.203,162.8354 242.6343,164.3906 L229.4434,177.4688 C233.0503,181.9751 235.5991,187.3511 236.7185,193.228 L256,193.228 C258.209,193.228 260,195.019 260,197.228 L260,201.0747 C260,203.2837 258.209,205.0747 256,205.0747 L236.9998,205.0747 C236.1448,211.1299 233.7817,216.7061 230.2996,221.4175 L243.624,234.6284 C245.193,236.1836 245.193,238.7056 243.624,240.2607 L240.8564,243.005 C239.2876,244.56 236.7441,244.56 235.1753,243.005 L221.7649,229.709 C217.3367,232.791 212.1877,234.9243 206.6189,235.8115 L206.6189,254 C206.6189,256.209 204.8279,258 202.6189,258 L200.3813,258 C198.1721,258 196.3813,256.209 196.3813,254 L196.3813,236.0146 C189.5002,235.1992 183.2058,232.4907 178.0435,228.4287 L165.5837,240.7817 C164.0151,242.337 161.4714,242.337 159.9028,240.7817 L157.136,238.0386 C155.5671,236.4834 155.5671,233.9614 157.136,232.4062 L170.0076,219.6445 C167.1987,215.3301 165.2883,210.3867 164.5381,205.0747 L147,205.0747 C144.79077,205.0747 143,203.2837 143,201.0747 L143,197.228 C143,195.019 144.79077,193.228 147,193.228 L164.8193,193.228 C165.8,188.0791 167.8782,183.3149 170.8035,179.1831 L158.125,166.6128 C156.5562,165.0571 156.5562,162.5356 158.125,160.98 L160.8926,158.2358 C162.4614,156.6807 165.0049,156.6807 166.5737,158.2358 L179.1665,170.7212 C184.1079,167.1313 189.9917,164.7417 196.3813,163.9844 L196.3813,146 Z" id="path13_fill" fill="#FFFFFF"></path>
            <path d="M206.6189,164.1875 L205.6189,164.1875 L205.6189,165.0408 L206.4615,165.175 L206.6189,164.1875 Z M220.5837,169.5015 L220.0447,170.3438 L220.7192,170.7754 L221.2878,170.2116 L220.5837,169.5015 Z M234.1863,156.0151 L234.8903,156.7253 L234.8904,156.7252 L234.1863,156.0151 Z M239.8674,156.0151 L239.1633,156.7252 L239.1634,156.7253 L239.8674,156.0151 Z M242.6343,158.7583 L241.9302,159.4684 L241.9303,159.4685 L242.6343,158.7583 Z M242.6343,164.3906 L241.9303,163.6804 L241.9302,163.6805 L242.6343,164.3906 Z M229.4434,177.4688 L228.7393,176.7586 L228.1008,177.3917 L228.6627,178.0936 L229.4434,177.4688 Z M236.7185,193.228 L235.7362,193.4151 L235.891,194.228 L236.7185,194.228 L236.7185,193.228 Z M236.9998,205.0747 L236.9998,204.0747 L236.131,204.0747 L236.0096,204.9349 L236.9998,205.0747 Z M230.2996,221.4175 L229.4954,220.8231 L228.9813,221.5187 L229.5955,222.1276 L230.2996,221.4175 Z M243.624,234.6284 L242.9202,235.3385 L242.9202,235.3386 L243.624,234.6284 Z M243.624,240.2607 L242.9202,239.5506 L243.624,240.2607 Z M240.8564,243.005 L241.5604,243.715 L241.5605,243.715 L240.8564,243.005 Z M235.1753,243.005 L234.4712,243.715 L234.4713,243.715 L235.1753,243.005 Z M221.7649,229.709 L222.469,228.9989 L221.8774,228.4123 L221.1936,228.8882 L221.7649,229.709 Z M206.6189,235.8115 L206.4616,234.824 L205.6189,234.9582 L205.6189,235.8115 L206.6189,235.8115 Z M196.3813,236.0146 L197.3813,236.0146 L197.3813,235.1262 L196.499,235.0216 L196.3813,236.0146 Z M178.0435,228.4287 L178.6618,227.6428 L177.9671,227.0962 L177.3394,227.7186 L178.0435,228.4287 Z M165.5837,240.7817 L164.8797,240.0716 L164.8796,240.0717 L165.5837,240.7817 Z M159.9028,240.7817 L160.607,240.0717 L160.6069,240.0716 L159.9028,240.7817 Z M157.136,238.0386 L157.84,237.3284 L157.136,238.0386 Z M157.136,232.4062 L157.84,233.1164 L157.8401,233.1164 L157.136,232.4062 Z M170.0076,219.6445 L170.7116,220.3547 L171.2899,219.7813 L170.8456,219.0989 L170.0076,219.6445 Z M164.5381,205.0747 L165.5283,204.9349 L165.4068,204.0747 L164.5381,204.0747 L164.5381,205.0747 Z M164.8193,193.228 L164.8193,194.228 L165.6468,194.228 L165.8017,193.4151 L164.8193,193.228 Z M170.8035,179.1831 L171.6196,179.7609 L172.1092,179.0695 L171.5075,178.473 L170.8035,179.1831 Z M158.125,166.6128 L157.4209,167.3229 L158.125,166.6128 Z M158.125,160.98 L157.4209,160.2699 L158.125,160.98 Z M160.8926,158.2358 L160.1886,157.5256 L160.1885,157.5257 L160.8926,158.2358 Z M166.5737,158.2358 L167.2778,157.5257 L167.2777,157.5256 L166.5737,158.2358 Z M179.1665,170.7212 L178.4624,171.4313 L179.0663,172.03 L179.7543,171.5302 L179.1665,170.7212 Z M196.3813,163.9844 L196.499,164.9774 L197.3813,164.8729 L197.3813,163.9844 L196.3813,163.9844 Z M200.3813,141 C197.6198,141 195.3813,143.23877 195.3813,146 L197.3813,146 C197.3813,144.34326 198.7244,143 200.3813,143 L200.3813,141 Z M202.6189,141 L200.3813,141 L200.3813,143 L202.6189,143 L202.6189,141 Z M207.6189,146 C207.6189,143.23873 205.3802,141 202.6189,141 L202.6189,143 C204.2756,143 205.6189,144.3433 205.6189,146 L207.6189,146 Z M207.6189,164.1875 L207.6189,146 L205.6189,146 L205.6189,164.1875 L207.6189,164.1875 Z M206.4615,165.175 C211.4377,165.9621 215.9769,167.735 220.0447,170.3438 L221.1227,168.6592 C216.8839,165.9525 211.9617,164.032 206.7762,163.2 L206.4615,165.175 Z M221.2878,170.2116 L234.8903,156.7253 L233.4822,155.305 L219.8797,168.7913 L221.2878,170.2116 Z M234.8904,156.7252 C236.0694,155.5561 237.9843,155.5561 239.1633,156.7252 L240.5715,155.3051 C238.6129,153.3628 235.4408,153.3628 233.4822,155.3051 L234.8904,156.7252 Z M239.1634,156.7253 L241.9302,159.4684 L243.338,158.0482 L240.5715,155.305 L239.1634,156.7253 Z M241.9303,159.4685 C243.104,160.6325 243.104,162.5165 241.9303,163.6804 L243.338,165.1008 C245.302,163.1544 245.302,159.9945 243.338,158.0481 L241.9303,159.4685 Z M241.9302,163.6805 L228.7393,176.7586 L230.1474,178.1789 L243.338,165.1008 L241.9302,163.6805 Z M228.6627,178.0936 C232.2024,182.5053 234.6485,187.6613 235.7362,193.4151 L237.7008,193.0409 C236.5498,187.0408 233.8982,181.4449 230.2241,176.8439 L228.6627,178.0936 Z M256,192.228 L236.7185,192.228 L236.7185,194.228 L256,194.228 L256,192.228 Z M261,197.228 C261,194.4668 258.762,192.228 256,192.228 L256,194.228 C257.657,194.228 259,195.5713 259,197.228 L261,197.228 Z M261,201.0747 L261,197.228 L259,197.228 L259,201.0747 L261,201.0747 Z M256,206.0747 C258.762,206.0747 261,203.8359 261,201.0747 L259,201.0747 C259,202.7314 257.657,204.0747 256,204.0747 L256,206.0747 Z M236.9998,206.0747 L256,206.0747 L256,204.0747 L236.9998,204.0747 L236.9998,206.0747 Z M236.0096,204.9349 C235.1812,210.8626 232.9133,216.2103 229.4954,220.8231 L231.1038,222.0118 C234.6502,217.2018 237.1084,211.3971 237.9899,205.2145 L236.0096,204.9349 Z M244.328,233.9183 L231.0036,220.7074 L229.5955,222.1276 L242.9202,235.3385 L244.328,233.9183 Z M244.328,240.9709 C246.292,239.0245 246.292,235.8647 244.328,233.9183 L242.9202,235.3386 C244.094,236.5025 244.094,238.3866 242.9202,239.5506 L244.328,240.9709 Z M241.5605,243.715 L244.328,240.9709 L242.9202,239.5506 L240.1524,242.295 L241.5605,243.715 Z M234.4713,243.715 C236.4299,245.657 239.6018,245.657 241.5604,243.715 L240.1524,242.295 C238.9734,243.463 237.0583,243.463 235.8793,242.295 L234.4713,243.715 Z M221.0608,230.4191 L234.4712,243.715 L235.8794,242.295 L222.469,228.9989 L221.0608,230.4191 Z M221.1936,228.8882 C216.8569,231.9136 211.9158,233.962 206.4616,234.824 L206.7762,236.7991 C212.4597,235.8866 217.8165,233.6684 222.3362,230.5298 L221.1936,228.8882 Z M207.6189,254 L207.6189,235.8115 L205.6189,235.8115 L205.6189,254 L207.6189,254 Z M202.6189,259 C205.3802,259 207.6189,256.761 207.6189,254 L205.6189,254 C205.6189,255.657 204.2756,257 202.6189,257 L202.6189,259 Z M200.3813,259 L202.6189,259 L202.6189,257 L200.3813,257 L200.3813,259 Z M195.3813,254 C195.3813,256.761 197.6198,259 200.3813,259 L200.3813,257 C198.7244,257 197.3813,255.657 197.3813,254 L195.3813,254 Z M195.3813,236.0146 L195.3813,254 L197.3813,254 L197.3813,236.0146 L195.3813,236.0146 Z M196.499,235.0216 C189.7594,234.2334 183.717,231.6312 178.6618,227.6428 L177.4251,229.2146 C182.6947,233.3502 189.2411,236.1651 196.2637,237.0077 L196.499,235.0216 Z M166.2878,241.4919 L178.7475,229.1389 L177.3394,227.7186 L164.8797,240.0716 L166.2878,241.4919 Z M159.1987,241.4918 C161.1571,243.434 164.3295,243.434 166.2879,241.4918 L164.8796,240.0717 C163.7008,241.2407 161.7858,241.2407 160.607,240.0717 L159.1987,241.4918 Z M156.4319,238.7487 L159.1988,241.4919 L160.6069,240.0716 L157.84,237.3284 L156.4319,238.7487 Z M156.432,231.6961 C154.4685,233.6424 154.4685,236.8024 156.432,238.7488 L157.84,237.3284 C156.6658,236.1644 156.6658,234.2804 157.84,233.1164 L156.432,231.6961 Z M169.3035,218.9344 L156.4319,231.6961 L157.8401,233.1164 L170.7116,220.3547 L169.3035,218.9344 Z M170.8456,219.0989 C168.089,214.8746 166.2561,210.1349 165.5283,204.9349 L163.5479,205.2146 C164.3206,210.6385 166.3085,215.7856 169.1695,220.1901 L170.8456,219.0989 Z M164.5381,204.0747 L147,204.0747 L147,206.0747 L164.5381,206.0747 L164.5381,204.0747 Z M147,204.0747 C145.3431,204.0747 144,202.7314 144,201.0747 L142,201.0747 C142,203.8359 144.23845,206.0747 147,206.0747 L147,204.0747 Z M144,201.0747 L144,197.228 L142,197.228 L142,201.0747 L144,201.0747 Z M144,197.228 C144,195.5713 145.3431,194.228 147,194.228 L147,192.228 C144.23845,192.228 142,194.4668 142,197.228 L144,197.228 Z M147,194.228 L164.8193,194.228 L164.8193,192.228 L147,192.228 L147,194.228 Z M165.8017,193.4151 C166.7555,188.3744 168.7491,183.8063 171.6196,179.7609 L169.9873,178.6053 C167.0072,182.8235 164.8446,187.7838 163.837,193.0409 L165.8017,193.4151 Z M171.5075,178.473 L158.8291,165.9027 L157.4209,167.3229 L170.0994,179.8932 L171.5075,178.473 Z M158.8291,165.9027 C157.6548,164.7382 157.6548,162.8545 158.8291,161.6901 L157.4209,160.2699 C155.4575,162.2168 155.4575,165.376 157.4209,167.3229 L158.8291,165.9027 Z M158.8291,161.6901 L161.5967,158.9459 L160.1885,157.5257 L157.4209,160.2699 L158.8291,161.6901 Z M161.5966,158.946 C162.7756,157.7773 164.6907,157.7773 165.8697,158.946 L167.2777,157.5256 C165.3191,155.5841 162.1472,155.5841 160.1886,157.5256 L161.5966,158.946 Z M165.8697,158.946 L178.4624,171.4313 L179.8706,170.0111 L167.2778,157.5257 L165.8697,158.946 Z M179.7543,171.5302 C184.5935,168.0055 190.2409,165.7101 196.499,164.9774 L196.2636,162.9913 C189.7425,163.7733 183.6223,166.2572 178.5788,169.9122 L179.7543,171.5302 Z M195.3813,146 L195.3813,163.9844 L197.3813,163.9844 L197.3813,146 L195.3813,146 Z" id="path14_stroke" fill="#4F69F6"></path>
            <polygon id="path15_fill" fill="#FFFFFF" points="207 41 192 41 192 46.30078 195 46.30127 195 126.6992 192 126.6987 192 131.9995 207 131.9995 207 126.6987 204 126.6992 204 46.30127 207 46.30078"></polygon>
            <path d="M192,41 L192,40 L191,40 L191,41 L192,41 Z M207,41 L208,41 L208,40 L207,40 L207,41 Z M192,46.30078 L191,46.30078 L191,47.30062 L191.999837,47.30078 L192,46.30078 Z M195,46.30127 L196,46.30127 L196,45.30143 L195.00016,45.30127 L195,46.30127 Z M195,126.6992 L194.99984,127.6992 L196,127.6994 L196,126.6992 L195,126.6992 Z M192,126.6987 L192.000163,125.6987 L191,125.6986 L191,126.6987 L192,126.6987 Z M192,131.9995 L191,131.9995 L191,132.9995 L192,132.9995 L192,131.9995 Z M207,131.9995 L207,132.9995 L208,132.9995 L208,131.9995 L207,131.9995 Z M207,126.6987 L208,126.6987 L208,125.6986 L206.9998,125.6987 L207,126.6987 Z M204,126.6992 L203,126.6992 L203,127.6994 L204.0002,127.6992 L204,126.6992 Z M204,46.30127 L203.9998,45.30127 L203,45.30143 L203,46.30127 L204,46.30127 Z M207,46.30078 L207.0002,47.30078 L208,47.30062 L208,46.30078 L207,46.30078 Z M192,42 L207,42 L207,40 L192,40 L192,42 Z M193,46.30078 L193,41 L191,41 L191,46.30078 L193,46.30078 Z M195.00016,45.30127 L192.000163,45.30078 L191.999837,47.30078 L194.99984,47.30127 L195.00016,45.30127 Z M194,46.30127 L194,126.6992 L196,126.6992 L196,46.30127 L194,46.30127 Z M195.00016,125.6992 L192.000163,125.6987 L191.999837,127.6987 L194.99984,127.6992 L195.00016,125.6992 Z M191,126.6987 L191,131.9995 L193,131.9995 L193,126.6987 L191,126.6987 Z M192,132.9995 L207,132.9995 L207,130.9995 L192,130.9995 L192,132.9995 Z M208,131.9995 L208,126.6987 L206,126.6987 L206,131.9995 L208,131.9995 Z M206.9998,125.6987 L203.9998,125.6992 L204.0002,127.6992 L207.0002,127.6987 L206.9998,125.6987 Z M205,126.6992 L205,46.30127 L203,46.30127 L203,126.6992 L205,126.6992 Z M206.9998,45.30078 L203.9998,45.30127 L204.0002,47.30127 L207.0002,47.30078 L206.9998,45.30078 Z M206,41 L206,46.30078 L208,46.30078 L208,41 L206,41 Z" id="path16_stroke" fill="#4F69F6"></path>
            <path d="M201,108.5 L420,108.5 L420,45 C399.5,45.0002124 355,45.0005143 351,45 C341.8,64.2 322.167,68.6667 313.5,68.5 L201,68.5 C195.47715,68.5 191,72.9772 191,78.5 L191,98.5 C191,104.0228 195.47715,108.5 201,108.5 Z" id="path17_fill" fill="#FFFFFF"></path>
            <path d="M420,108.5 L420,109.5 L421,109.5 L421,108.5 L420,108.5 Z M313.5,68.5 L313.519,67.5002 L313.51,67.5 L313.5,67.5 L313.5,68.5 Z M351,45 L351,44 L350.37,43.99992 L350.098,44.56788 L351,45 Z M420,45 L421,45 L421,43.99999 L420,43.99999 L420,45 Z M420,107.5 L201,107.5 L201,109.5 L420,109.5 L420,107.5 Z M192,98.5 L192,78.5 L190,78.5 L190,98.5 L192,98.5 Z M201,69.5 L313.5,69.5 L313.5,67.5 L201,67.5 L201,69.5 Z M313.481,69.4998 C322.374,69.6708 342.471,65.1136 351.902,45.43212 L350.098,44.56788 C341.129,63.2864 321.96,67.6625 313.519,67.5002 L313.481,69.4998 Z M351,46 C355,46.00051 399.5,46.00021 420,46 L420,44 C399.5,44.000212 355,44.000514 351,44 L351,46 Z M419,45 L419,108.5 L421,108.5 L421,45 L419,45 Z M192,78.5 C192,73.5294 196.02944,69.5 201,69.5 L201,67.5 C194.92487,67.5 190,72.4249 190,78.5 L192,78.5 Z M201,107.5 C196.02944,107.5 192,103.4706 192,98.5 L190,98.5 C190,104.5751 194.92487,109.5 201,109.5 L201,107.5 Z" id="path18_stroke" fill="#4F69F6"></path>
            <path d="M433,34 L409,34 L409,45 L413,45 L413,65 L388,65 L388,68 L373,68 C370.79077,68 369,69.791 369,72 L369,82 C369,84.209 370.79077,86 373,86 L388,86 L388,89 L413,89 L413,107 L409,107 L409,118 L433,118 L433,107 L429,107 L429,45 L433,45 L433,34 Z" id="path19_fill" fill="#FFFFFF"></path>
            <path d="M409,34 L409,33 L408,33 L408,34 L409,34 Z M433,34 L434,34 L434,33 L433,33 L433,34 Z M409,45 L408,45 L408,46 L409,46 L409,45 Z M413,45 L414,45 L414,44 L413,44 L413,45 Z M413,65 L413,66 L414,66 L414,65 L413,65 Z M388,65 L388,64 L387,64 L387,65 L388,65 Z M388,68 L388,69 L389,69 L389,68 L388,68 Z M388,86 L389,86 L389,85 L388,85 L388,86 Z M388,89 L387,89 L387,90 L388,90 L388,89 Z M413,89 L414,89 L414,88 L413,88 L413,89 Z M413,107 L413,108 L414,108 L414,107 L413,107 Z M409,107 L409,106 L408,106 L408,107 L409,107 Z M409,118 L408,118 L408,119 L409,119 L409,118 Z M433,118 L433,119 L434,119 L434,118 L433,118 Z M433,107 L434,107 L434,106 L433,106 L433,107 Z M429,107 L428,107 L428,108 L429,108 L429,107 Z M429,45 L429,44 L428,44 L428,45 L429,45 Z M433,45 L433,46 L434,46 L434,45 L433,45 Z M409,35 L433,35 L433,33 L409,33 L409,35 Z M410,45 L410,34 L408,34 L408,45 L410,45 Z M413,44 L409,44 L409,46 L413,46 L413,44 Z M414,65 L414,45 L412,45 L412,65 L414,65 Z M413,64 L388,64 L388,66 L413,66 L413,64 Z M387,65 L387,68 L389,68 L389,65 L387,65 Z M388,67 L373,67 L373,69 L388,69 L388,67 Z M373,67 C370.23845,67 368,69.2388 368,72 L370,72 C370,70.3433 371.3431,69 373,69 L373,67 Z M368,72 L368,82 L370,82 L370,72 L368,72 Z M368,82 C368,84.7612 370.23845,87 373,87 L373,85 C371.3431,85 370,83.6567 370,82 L368,82 Z M373,87 L388,87 L388,85 L373,85 L373,87 Z M387,86 L387,89 L389,89 L389,86 L387,86 Z M388,90 L413,90 L413,88 L388,88 L388,90 Z M414,107 L414,89 L412,89 L412,107 L414,107 Z M409,108 L413,108 L413,106 L409,106 L409,108 Z M410,118 L410,107 L408,107 L408,118 L410,118 Z M433,117 L409,117 L409,119 L433,119 L433,117 Z M432,107 L432,118 L434,118 L434,107 L432,107 Z M429,108 L433,108 L433,106 L429,106 L429,108 Z M428,45 L428,107 L430,107 L430,45 L428,45 Z M433,44 L429,44 L429,46 L433,46 L433,44 Z M432,34 L432,45 L434,45 L434,34 L432,34 Z" id="path20_stroke" fill="#4F69F6"></path>
            <polygon id="path23_fill" fill="#FFFFFF" transform="translate(199.500000, 312.500250) scale(-1, 1) rotate(-180.000000) translate(-199.500000, -312.500250) " points="192 352.6992 195 352.6997 195 272.30177 192 272.30128 192 267.0005 207 267.0005 207 272.30128 204 272.30177 204 352.6997 207 352.6992 207 358 192 358"></polygon>
            <path d="M195,352.6997 L194.99984,353.6997 L196,353.6999 L196,352.6997 L195,352.6997 Z M192,352.6992 L192.000163,351.6992 L191,351.6991 L191,352.6992 L192,352.6992 Z M195,272.30177 L196,272.30177 L196,271.30193 L195.00016,271.30177 L195,272.30177 Z M192,272.30128 L191,272.30128 L191,273.30112 L191.999837,273.30128 L192,272.30128 Z M192,267.0005 L192,266.0005 L191,266.0005 L191,267.0005 L192,267.0005 Z M207,267.0005 L208,267.0005 L208,266.0005 L207,266.0005 L207,267.0005 Z M207,272.30128 L207.0002,273.30128 L208,273.30112 L208,272.30128 L207,272.30128 Z M204,272.30177 L203.9998,271.30177 L203,271.30193 L203,272.30177 L204,272.30177 Z M204,352.6997 L203,352.6997 L203,353.6999 L204.0002,353.6997 L204,352.6997 Z M207,352.6992 L208,352.6992 L208,351.6991 L206.9998,351.6992 L207,352.6992 Z M207,358 L207,359 L208,359 L208,358 L207,358 Z M192,358 L191,358 L191,359 L192,359 L192,358 Z M195.00016,351.6997 L192.000163,351.6992 L191.999837,353.6992 L194.99984,353.6997 L195.00016,351.6997 Z M194,272.30177 L194,352.6997 L196,352.6997 L196,272.30177 L194,272.30177 Z M195.00016,271.30177 L192.000163,271.30128 L191.999837,273.30128 L194.99984,273.30177 L195.00016,271.30177 Z M193,272.30128 L193,267.0005 L191,267.0005 L191,272.30128 L193,272.30128 Z M192,268.0005 L207,268.0005 L207,266.0005 L192,266.0005 L192,268.0005 Z M206,267.0005 L206,272.30128 L208,272.30128 L208,267.0005 L206,267.0005 Z M206.9998,271.30128 L203.9998,271.30177 L204.0002,273.30177 L207.0002,273.30128 L206.9998,271.30128 Z M205,352.6997 L205,272.30177 L203,272.30177 L203,352.6997 L205,352.6997 Z M206.9998,351.6992 L203.9998,351.6997 L204.0002,353.6997 L207.0002,353.6992 L206.9998,351.6992 Z M208,358 L208,352.6992 L206,352.6992 L206,358 L208,358 Z M192,359 L207,359 L207,357 L192,357 L192,359 Z M191,352.6992 L191,358 L193,358 L193,352.6992 L191,352.6992 Z" id="path24_stroke" fill="#4F69F6" transform="translate(199.500000, 312.500250) scale(-1, 1) rotate(-180.000000) translate(-199.500000, -312.500250) "></path>
            <path d="M201,354 L420,354 L420,290.5 C399.5,290.500212 355,290.500514 351,290.5 C341.8,309.7 322.167,314.1667 313.5,314 L201,314 C195.47715,314 191,318.4772 191,324 L191,344 C191,349.5228 195.47715,354 201,354 Z" id="path17_fill" fill="#FFFFFF" transform="translate(305.500000, 322.250000) scale(-1, 1) rotate(-180.000000) translate(-305.500000, -322.250000) "></path>
            <path d="M420,354.00008 L420,355.00008 L421,355.00008 L421,354.00008 L420,354.00008 Z M313.5,314.00008 L313.519,313.00028 L313.51,313.00008 L313.5,313.00008 L313.5,314.00008 Z M351,290.50008 L351,289.50008 L350.37,289.5 L350.098,290.06796 L351,290.50008 Z M420,290.50008 L421,290.50008 L421,289.50007 L420,289.50007 L420,290.50008 Z M420,353.00008 L201,353.00008 L201,355.00008 L420,355.00008 L420,353.00008 Z M192,344.00008 L192,324.00008 L190,324.00008 L190,344.00008 L192,344.00008 Z M201,315.00008 L313.5,315.00008 L313.5,313.00008 L201,313.00008 L201,315.00008 Z M313.481,314.99988 C322.374,315.17088 342.471,310.61368 351.902,290.9322 L350.098,290.06796 C341.129,308.78648 321.96,313.16258 313.519,313.00028 L313.481,314.99988 Z M351,291.50008 C355,291.50059 399.5,291.50029 420,291.50008 L420,289.50008 C399.5,289.500292 355,289.500594 351,289.50008 L351,291.50008 Z M419,290.50008 L419,354.00008 L421,354.00008 L421,290.50008 L419,290.50008 Z M192,324.00008 C192,319.02948 196.02944,315.00008 201,315.00008 L201,313.00008 C194.92487,313.00008 190,317.92498 190,324.00008 L192,324.00008 Z M201,353.00008 C196.02944,353.00008 192,348.97068 192,344.00008 L190,344.00008 C190,350.07518 194.92487,355.00008 201,355.00008 L201,353.00008 Z" id="path18_stroke" fill="#4F69F6" transform="translate(305.500000, 322.250040) scale(-1, 1) rotate(-180.000000) translate(-305.500000, -322.250040) "></path>
            <path d="M433,354 L429,354 L429,292 L433,292 L433,281 L409,281 L409,292 L413,292 L413,312 L388,312 L388,315 L373,315 C370.79077,315 369,316.791 369,319 L369,329 C369,331.209 370.79077,333 373,333 L388,333 L388,336 L413,336 L413,354 L409,354 L409,365 L433,365 L433,354 Z" id="path25_fill" fill="#FFFFFF" transform="translate(401.000000, 323.000000) scale(-1, 1) rotate(-180.000000) translate(-401.000000, -323.000000) "></path>
            <path d="M429,354 L428,354 L428,355 L429,355 L429,354 Z M433,354 L434,354 L434,353 L433,353 L433,354 Z M429,292 L429,291 L428,291 L428,292 L429,292 Z M433,292 L433,293 L434,293 L434,292 L433,292 Z M433,281 L434,281 L434,280 L433,280 L433,281 Z M409,281 L409,280 L408,280 L408,281 L409,281 Z M409,292 L408,292 L408,293 L409,293 L409,292 Z M413,292 L414,292 L414,291 L413,291 L413,292 Z M413,312 L413,313 L414,313 L414,312 L413,312 Z M388,312 L388,311 L387,311 L387,312 L388,312 Z M388,315 L388,316 L389,316 L389,315 L388,315 Z M388,333 L389,333 L389,332 L388,332 L388,333 Z M388,336 L387,336 L387,337 L388,337 L388,336 Z M413,336 L414,336 L414,335 L413,335 L413,336 Z M413,354 L413,355 L414,355 L414,354 L413,354 Z M409,354 L409,353 L408,353 L408,354 L409,354 Z M409,365 L408,365 L408,366 L409,366 L409,365 Z M433,365 L433,366 L434,366 L434,365 L433,365 Z M429,355 L433,355 L433,353 L429,353 L429,355 Z M428,292 L428,354 L430,354 L430,292 L428,292 Z M433,291 L429,291 L429,293 L433,293 L433,291 Z M432,281 L432,292 L434,292 L434,281 L432,281 Z M409,282 L433,282 L433,280 L409,280 L409,282 Z M410,292 L410,281 L408,281 L408,292 L410,292 Z M413,291 L409,291 L409,293 L413,293 L413,291 Z M414,312 L414,292 L412,292 L412,312 L414,312 Z M413,311 L388,311 L388,313 L413,313 L413,311 Z M387,312 L387,315 L389,315 L389,312 L387,312 Z M388,314 L373,314 L373,316 L388,316 L388,314 Z M373,314 C370.23845,314 368,316.2388 368,319 L370,319 C370,317.3433 371.3431,316 373,316 L373,314 Z M368,319 L368,329 L370,329 L370,319 L368,319 Z M368,329 C368,331.7612 370.23845,334 373,334 L373,332 C371.3431,332 370,330.6567 370,329 L368,329 Z M373,334 L388,334 L388,332 L373,332 L373,334 Z M387,333 L387,336 L389,336 L389,333 L387,333 Z M388,337 L413,337 L413,335 L388,335 L388,337 Z M414,354 L414,336 L412,336 L412,354 L414,354 Z M409,355 L413,355 L413,353 L409,353 L409,355 Z M410,365 L410,354 L408,354 L408,365 L410,365 Z M433,364 L409,364 L409,366 L433,366 L433,364 Z M432,354 L432,365 L434,365 L434,354 L432,354 Z" id="path26_stroke" fill="#4F69F6" transform="translate(401.000000, 323.000000) scale(-1, 1) rotate(-180.000000) translate(-401.000000, -323.000000) "></path>
            <path d="M340,140 C340,137.23877 342.23853,135 345,135 C347.76147,135 350,137.23877 350,140 C350,142.76123 347.76147,145 345,145 C342.23853,145 340,142.76123 340,140 Z M340,195 C340,192.2388 342.23853,190 345,190 C347.76147,190 350,192.2388 350,195 C350,197.7612 347.76147,200 345,200 C342.23853,200 340,197.7612 340,195 Z M345,242 C342.23853,242 340,244.239 340,247 C340,249.761 342.23853,252 345,252 C347.76147,252 350,249.761 350,247 C350,244.239 347.76147,242 345,242 Z" id="path29_fill" fill="#DCEEFF"></path>
            <polygon id="path30_fill" fill="#FFFFFF" points="105 189 132 189 132 208 105 208"></polygon>
            <path d="M104.965517,189 L104.965517,188 L104,188 L104,189 L104.965517,189 Z M131.034483,189 L132,189 L132,188 L131.034483,188 L131.034483,189 Z M131.034483,208 L131.034483,209 L132,209 L132,208 L131.034483,208 Z M104.965517,208 L104,208 L104,209 L104.965517,209 L104.965517,208 Z M104.965517,190 L131.034483,190 L131.034483,188 L104.965517,188 L104.965517,190 Z M130.068966,189 L130.068966,208 L132,208 L132,189 L130.068966,189 Z M131.034483,207 L104.965517,207 L104.965517,209 L131.034483,209 L131.034483,207 Z M105.931034,208 L105.931034,189 L104,189 L104,208 L105.931034,208 Z" id="path31_stroke" fill="#4F69F6"></path>
            <polygon id="path32_fill" fill="#FFFFFF" points="109 159 97 159 97 164 99 164 99 193 97 193 97 204 99 204 99 233 97 233 97 238 109 238 109 233 107 233 107 204 109 204 109 193 107 193 107 164 109 164"></polygon>
            <path d="M97,159 L97,158 L96,158 L96,159 L97,159 Z M109,159 L110,159 L110,158 L109,158 L109,159 Z M97,164 L96,164 L96,165 L97,165 L97,164 Z M99,164 L100,164 L100,163 L99,163 L99,164 Z M99,193 L99,194 L100,194 L100,193 L99,193 Z M97,193 L97,192 L96,192 L96,193 L97,193 Z M97,204 L96,204 L96,205 L97,205 L97,204 Z M99,204 L100,204 L100,203 L99,203 L99,204 Z M99,233 L99,234 L100,234 L100,233 L99,233 Z M97,233 L97,232 L96,232 L96,233 L97,233 Z M97,238 L96,238 L96,239 L97,239 L97,238 Z M109,238 L109,239 L110,239 L110,238 L109,238 Z M109,233 L110,233 L110,232 L109,232 L109,233 Z M107,233 L106,233 L106,234 L107,234 L107,233 Z M107,204 L107,203 L106,203 L106,204 L107,204 Z M109,204 L109,205 L110,205 L110,204 L109,204 Z M109,193 L110,193 L110,192 L109,192 L109,193 Z M107,193 L106,193 L106,194 L107,194 L107,193 Z M107,164 L107,163 L106,163 L106,164 L107,164 Z M109,164 L109,165 L110,165 L110,164 L109,164 Z M97,160 L109,160 L109,158 L97,158 L97,160 Z M98,164 L98,159 L96,159 L96,164 L98,164 Z M99,163 L97,163 L97,165 L99,165 L99,163 Z M100,193 L100,164 L98,164 L98,193 L100,193 Z M97,194 L99,194 L99,192 L97,192 L97,194 Z M98,204 L98,193 L96,193 L96,204 L98,204 Z M99,203 L97,203 L97,205 L99,205 L99,203 Z M100,233 L100,204 L98,204 L98,233 L100,233 Z M97,234 L99,234 L99,232 L97,232 L97,234 Z M98,238 L98,233 L96,233 L96,238 L98,238 Z M109,237 L97,237 L97,239 L109,239 L109,237 Z M108,233 L108,238 L110,238 L110,233 L108,233 Z M107,234 L109,234 L109,232 L107,232 L107,234 Z M106,204 L106,233 L108,233 L108,204 L106,204 Z M109,203 L107,203 L107,205 L109,205 L109,203 Z M108,193 L108,204 L110,204 L110,193 L108,193 Z M107,194 L109,194 L109,192 L107,192 L107,194 Z M106,164 L106,193 L108,193 L108,164 L106,164 Z M109,163 L107,163 L107,165 L109,165 L109,163 Z M108,159 L108,164 L110,164 L110,159 L108,159 Z" id="path33_stroke" fill="#4F69F6"></path>
        </g>
    </g>
</svg>