<?xml version="1.0" encoding="UTF-8"?>
<svg width="110px" height="96px" viewBox="0 0 110 96" version="1.1" xmlns="http://www.w3.org/2000/svg" xmlns:xlink="http://www.w3.org/1999/xlink">
    <!-- Generator: Sketch 48.2 (47327) - http://www.bohemiancoding.com/sketch -->
    <title>ic_Zero_fee</title>
    <desc>Created with Sketch.</desc>
    <defs></defs>
    <g id="Business" stroke="none" stroke-width="1" fill="none" fill-rule="evenodd" transform="translate(-1265.000000, -6837.000000)">
        <g id="ic_Zero_fee" transform="translate(1245.000000, 6810.000000)">
            <rect id="Rectangle-9-Copy" x="0" y="0" width="150" height="150"></rect>
            <path d="M30.50848,123.000001 C49.3297001,123.000001 130.000001,123.000001 130.000001,123.000001 C130.000001,123.000001 128.1112,115.377501 118.6598,115.853001 C121.5742,106.6486 109.6279,98.2147503 99.8219004,104.6809 C93.4810003,82.3593998 53.8625001,83.7351999 53.1172001,109.664101 C39.12522,102.0918 27.38311,114.779701 30.50848,123.000001 Z" id="path4_fill" fill="#DCEEFF" fill-rule="nonzero"></path>
            <path d="M20.2384445,50.9999907 C31.1654996,50.9999907 78,50.9999907 78,50.9999907 C78,50.9999907 76.5166,44.8980933 69.9629999,45.9637928 C69.2566999,25.0868817 40.1664997,23.2353624 36.5902996,41.7653946 C27.2643696,37.3972664 18.4239595,45.7417929 20.2384445,50.9999907 Z" id="path0_fill" fill="#DCEEFF" fill-rule="nonzero" transform="translate(49.000000, 39.999995) scale(-1, 1) translate(-49.000000, -39.999995) "></path>
            <path d="M70.2631579,103 C90.6976936,103 98.5,86.4345357 98.5,66 C98.5,45.5654643 90.6976936,29 70.2631579,29 C49.8286222,29 43,45.5654643 43,66 C43,86.4345357 49.8286222,103 70.2631579,103 Z" id="Oval-4" fill="#FFFFFF"></path>
            <path d="M71.3517,99.8789 C62.2961,99.8789 55.6625,96.2502 51.24597,90.2839 C46.78695,84.2602 44.5,75.7262 44.5,65.8462 L41.5,65.8462 C41.5,76.1363 43.874902,85.3686 48.83473,92.0688 C53.837,98.8263 61.3793,102.8789 71.3517,102.8789 L71.3517,99.8789 Z M44.5,65.8462 C44.5,55.7637 46.87921,47.1507 51.38613,41.0985 C55.8536,35.09924 62.491,31.5 71.3517,31.5 L71.3517,28.5 C61.565,28.5 54.0265,32.52984 48.97999,39.30669 C43.97292,46.0306 41.5,55.3407 41.5,65.8462 L44.5,65.8462 Z M71.3517,31.5 C80.3711,31.5 87.0114,35.36002 91.4463,41.5109 C95.9204,47.7163 98.2034,56.3415 98.2034,65.8462 L101.2034,65.8462 C101.2034,55.9125 98.8245,46.6145 93.8797,39.75642 C88.8957,32.84385 81.3602,28.5 71.3517,28.5 L71.3517,31.5 Z M98.2034,65.8462 C98.2034,75.714 95.8267,84.2495 91.319,90.2781 C86.8494,96.2556 80.2095,99.8789 71.3517,99.8789 L71.3517,102.8789 C81.1413,102.8789 88.6772,98.8208 93.7216,92.0746 C98.7279,85.3793 101.2034,76.1485 101.2034,65.8462 L98.2034,65.8462 Z M71.3515,86.68 C75.9458,86.68 79.091,84.3255 80.9855,80.488 C82.8173,76.7778 83.5071,71.6638 83.5071,65.8461 L80.5071,65.8461 C80.5071,71.5242 79.8175,76.0772 78.2955,79.16 C76.8364,82.1155 74.6538,83.68 71.3515,83.68 L71.3515,86.68 Z M83.5071,65.8461 C83.5071,60.1834 82.8174,55.2404 80.9738,51.6642 C79.0602,47.9521 75.9047,45.7437 71.3515,45.7437 L71.3515,48.7437 C74.6948,48.7437 76.8672,50.2452 78.3073,53.0388 C79.8174,55.9681 80.5071,60.3263 80.5071,65.8461 L83.5071,65.8461 Z M71.3515,45.7437 C66.7982,45.7437 63.6427,47.9521 61.7291,51.6642 C59.8856,55.2404 59.1958,60.1834 59.1958,65.8461 L62.1958,65.8461 C62.1958,60.3263 62.8856,55.9681 64.3957,53.0388 C65.8358,50.2452 68.0081,48.7437 71.3515,48.7437 L71.3515,45.7437 Z M59.1958,65.8461 C59.1958,71.6638 59.8857,76.7778 61.7174,80.488 C63.6119,84.3255 66.7572,86.68 71.3515,86.68 L71.3515,83.68 C68.0491,83.68 65.8666,82.1155 64.4074,79.16 C62.8855,76.0772 62.1958,71.5242 62.1958,65.8461 L59.1958,65.8461 Z" id="path2_stroke" fill="#4F69F6" fill-rule="nonzero"></path>
            <path d="M105.45825,30 C104.12891,30 103,31.10791 103,32.53857 C103,33.96924 104.12891,35.07715 105.45825,35.07715 C106.78784,35.07715 107.91675,33.96924 107.91675,32.53857 C107.91675,31.10791 106.78784,30 105.45825,30 Z M100,32.53857 C100,29.5083 102.41553,27 105.45825,27 C108.50122,27 110.9167,29.5083 110.9167,32.53857 C110.9167,35.56885 108.50122,38.0771 105.45825,38.0771 C102.41553,38.0771 100,35.56885 100,32.53857 Z M116.5415,42.9229 C115.2122,42.9229 114.0833,44.0308 114.0833,45.4614 C114.0833,46.8921 115.2122,48 116.5415,48 C117.8711,48 119,46.8921 119,45.4614 C119,44.0308 117.8711,42.9229 116.5415,42.9229 Z M111.0833,45.4614 C111.0833,42.4312 113.4988,39.9229 116.5415,39.9229 C119.5845,39.9229 122,42.4312 122,45.4614 C122,48.4917 119.5845,51 116.5415,51 C113.4988,51 111.0833,48.4917 111.0833,45.4614 Z M118.4463,33.5498 C119.0261,32.9585 119.0166,32.00879 118.425,31.42871 C117.8333,30.84863 116.8835,30.8584 116.3037,31.4502 L104.42871,43.5659 C103.84888,44.1572 103.8584,45.1069 104.44995,45.687 C105.04175,46.2666 105.99146,46.2573 106.57129,45.6655 L118.4463,33.5498 Z" id="path3_fill" fill="#4F69F6" fill-rule="nonzero"></path>
        </g>
    </g>
</svg>